<?xml version="1.0" encoding="UTF-8"?>
<svg width="99px" height="20px" viewBox="0 0 99 20" version="1.1" xmlns="http://www.w3.org/2000/svg" xmlns:xlink="http://www.w3.org/1999/xlink">
    <!-- Generator: Sketch 52.3 (67297) - http://www.bohemiancoding.com/sketch -->
    <title>logo-monmouthshire</title>
    <desc>Created with Sketch.</desc>
    <defs>
        <polygon id="path-1" points="0 20 98.9107951 20 98.9107951 0 0 0"></polygon>
    </defs>
    <g id="Page-1" stroke="none" stroke-width="1" fill="none" fill-rule="evenodd">
        <g id="Dragons_Generic_WF_v4" transform="translate(-1239.000000, -41.000000)">
            <g id="logo-monmouthshire" transform="translate(1239.000000, 41.000000)">
                <path d="M19.3591177,16.7933684 C15.0316283,16.7933684 11.5110064,13.2619649 11.5110064,8.9214386 L11.5110064,8.92108772 C11.5108314,7.47442105 10.3371742,6.29757895 8.89485265,6.29740351 L8.89467774,6.29740351 L8.89450283,6.29740351 C7.45218127,6.29757895 6.27887385,7.47459649 6.27887385,8.92126316 L6.27887385,8.9214386 L6.27887385,17.3179298 C6.27887385,17.6079298 6.51308057,17.8426667 6.80185972,17.8426667 C7.09098869,17.8426667 7.32537032,17.6079298 7.32537032,17.3179298 L7.32537032,8.9214386 C7.32537032,8.05336842 8.02938975,7.34705263 8.89467774,7.34705263 C9.75996572,7.34705263 10.4639852,8.05284211 10.4645099,8.92038596 C10.4645099,8.92073684 10.464335,8.92108772 10.464335,8.9214386 C10.464335,13.8407368 14.4545947,17.8426667 19.3591177,17.8426667 C19.6480717,17.8426667 19.8822784,17.6079298 19.8822784,17.3179298 C19.8822784,17.0282807 19.6480717,16.7933684 19.3591177,16.7933684" id="Fill-1" fill="#EF7F1C"></path>
                <path d="M19.3591177,14.6941053 C16.1858703,14.6941053 13.6041742,12.1049825 13.6036495,8.92235088 C13.6036495,8.922 13.6038244,8.92182456 13.6038244,8.92147368 C13.6038244,4.58094737 17.1244463,1.04954386 21.4519357,1.04954386 C25.7792502,1.04954386 29.2998721,4.58077193 29.300047,8.92094737 L29.300047,8.92147368 C29.300047,10.3683158 30.4737042,11.5453333 31.9163756,11.5453333 C32.2051548,11.5453333 32.4395364,11.3104211 32.4395364,11.0205965 C32.4395364,10.7307719 32.2051548,10.4958596 31.9163756,10.4958596 C31.0509127,10.4958596 30.3468933,9.7897193 30.3465435,8.92182456 C30.3465435,8.92164912 30.3467184,8.92164912 30.3467184,8.92147368 C30.3467184,4.00217544 26.3564587,7.01754386e-05 21.4519357,7.01754386e-05 C19.0052714,7.01754386e-05 16.786342,0.996210526 15.1764551,2.60533333 C13.5149693,0.944105263 11.2572095,7.01754386e-05 8.89502756,7.01754386e-05 L8.89485265,7.01754386e-05 C3.99032968,7.01754386e-05 6.99646643e-05,4.00217544 6.99646643e-05,8.92147368 L6.99646643e-05,17.3179649 C6.99646643e-05,17.6077895 0.23445159,17.8427018 0.523230742,17.8427018 C0.812184806,17.8427018 1.04656643,17.6077895 1.04656643,17.3179649 L1.04656643,8.92147368 C1.04656643,4.58094737 4.56718834,1.04954386 8.89467774,1.04954386 L8.89485265,1.04954386 C10.9995647,1.04954386 13.0110488,1.89778947 14.4810064,3.39007018 C14.259918,3.66989474 14.0538721,3.962 13.8670664,4.26726316 C12.5833898,2.88866667 10.7805753,2.09901754 8.89467774,2.09901754 C8.89432792,2.09901754 8.894153,2.09919298 8.89380318,2.09919298 C5.14387208,2.09954386 2.09288799,5.15989474 2.09288799,8.92147368 L2.09288799,17.3179649 C2.09288799,17.6077895 2.32726961,17.8427018 2.61622367,17.8427018 C2.90517774,17.8427018 3.13938445,17.6077895 3.13938445,17.3179649 L3.13938445,8.92147368 C3.13938445,5.73849123 5.72090565,3.14901754 8.89397809,3.14866667 C8.894153,3.14866667 8.89432792,3.14866667 8.89467774,3.14866667 C10.5320258,3.14866667 12.0964357,3.85024561 13.1870099,5.07322807 C13.2408827,5.13375439 13.2933562,5.19585965 13.3447802,5.25866667 C13.1716177,5.64270175 13.0248668,6.04112281 12.9066265,6.45164912 C12.0771954,5.10094737 10.5892219,4.19831579 8.89485265,4.19831579 L8.89467774,4.19831579 C6.29811413,4.19831579 4.18588092,6.31691228 4.18588092,8.92147368 L4.18588092,17.3179649 C4.18588092,17.6077895 4.42008763,17.8427018 4.7090417,17.8427018 C4.99799576,17.8427018 5.23237739,17.6077895 5.23237739,17.3179649 L5.23237739,8.92147368 C5.23237739,6.89585965 6.87532261,5.24778947 8.89467774,5.24778947 L8.89485265,5.24778947 C10.9140329,5.24778947 12.5568032,6.89533333 12.5573279,8.92059649 C12.5573279,8.92077193 12.557153,8.92112281 12.557153,8.92129825 C12.557153,12.6830526 15.6086618,15.7435789 19.3591177,15.7435789 C19.6480717,15.7435789 19.8822784,15.5088421 19.8822784,15.2188421 C19.8822784,14.9290175 19.6480717,14.6941053 19.3591177,14.6941053" id="Fill-3" fill="#EF7F1C"></path>
                <path d="M31.9162882,16.7933684 C27.5887988,16.7933684 24.0681769,13.2619649 24.0681769,8.9214386 C24.0681769,8.92038596 24.067827,8.91950877 24.067827,8.91863158 C24.0662528,7.47319298 22.8934701,6.29757895 21.4520231,6.29740351 L21.4518482,6.29740351 L21.4516733,6.29740351 C20.0093518,6.29757895 18.8358694,7.47459649 18.8358694,8.9214386 C18.8358694,9.21126316 19.0702511,9.44617544 19.3590302,9.44617544 C19.6479843,9.44617544 19.8823659,9.21126316 19.8823659,8.9214386 C19.8823659,8.05336842 20.5865602,7.34705263 21.4518482,7.34705263 C22.3173111,7.34705263 23.0213306,8.05319298 23.0215055,8.92108772 L23.0215055,8.9214386 C23.0215055,13.8407368 27.0117652,17.8426667 31.9162882,17.8426667 C32.2052422,17.8426667 32.4396239,17.6079298 32.4396239,17.3179298 C32.4396239,17.0282807 32.2052422,16.7933684 31.9162882,16.7933684" id="Fill-5" fill="#EF7F1C"></path>
                <path d="M31.9162882,14.6941053 C28.742691,14.6941053 26.16082,12.1044561 26.16082,8.92129825 C26.16082,6.31691228 24.0485867,4.19831579 21.4520231,4.19831579 L21.4518482,4.19831579 C18.8552846,4.19831579 16.7428765,6.31708772 16.7428765,8.92147368 C16.7428765,8.92217544 16.7430514,8.92287719 16.7430514,8.92357895 C16.7442758,10.3693684 17.9174083,11.5453333 19.3590302,11.5453333 C19.6479843,11.5453333 19.8823659,11.3104211 19.8823659,11.0205965 C19.8823659,10.7307719 19.6479843,10.4958596 19.3590302,10.4958596 C18.4937422,10.4958596 17.789373,9.78954386 17.789373,8.92147368 L17.789373,8.92077193 C17.7897228,6.89550877 19.4324931,5.24778947 21.4518482,5.24778947 L21.4520231,5.24778947 C23.4713783,5.24778947 25.1143235,6.89585965 25.1143235,8.92147368 C25.1143235,12.6832281 28.1658323,15.7435789 31.9162882,15.7435789 C32.2052422,15.7435789 32.4396239,15.5088421 32.4396239,15.2188421 C32.4396239,14.9290175 32.2052422,14.6941053 31.9162882,14.6941053" id="Fill-7" fill="#EF7F1C"></path>
                <path d="M31.9162882,12.5950175 C29.8967581,12.5950175 28.2538129,10.9469474 28.2538129,8.92133333 L28.2538129,8.92045614 C28.2531133,5.15922807 25.2021292,2.09922807 21.4520231,2.09905263 L21.4518482,2.09905263 C17.7015673,2.09922807 14.6507581,5.15922807 14.6502334,8.92063158 C14.6502334,8.92080702 14.6502334,8.92115789 14.6502334,8.92133333 C14.6502334,11.5257193 16.7626415,13.6444912 19.3590302,13.6444912 C19.6479843,13.6444912 19.8823659,13.4095789 19.8823659,13.1197544 C19.8823659,12.8299298 19.6479843,12.5950175 19.3590302,12.5950175 C17.33985,12.5950175 15.6969048,10.9471228 15.6967299,8.92185965 C15.6967299,8.92185965 15.6967299,8.92150877 15.6967299,8.92150877 C15.6967299,5.73835088 18.278426,3.14870175 21.4520231,3.14870175 C24.6254454,3.14870175 27.2071415,5.73835088 27.2071415,8.92150877 C27.2071415,8.92185965 27.2073164,8.92203509 27.2073164,8.92238596 C27.2080161,11.5262456 29.3200744,13.6444912 31.9162882,13.6444912 C32.2052422,13.6444912 32.4396239,13.4095789 32.4396239,13.1197544 C32.4396239,12.8299298 32.2052422,12.5950175 31.9162882,12.5950175" id="Fill-9" fill="#EF7F1C"></path>
                <polygon id="Fill-11" fill="#FEFEFE" points="42.3937415 8.62605263 42.3937415 2.42745614 41.5550401 2.42745614 39.3037521 6.13780702 37.0524641 2.42745614 36.2135878 2.42745614 36.2135878 8.62605263 37.4056108 8.62605263 37.4056108 5.17254386 38.8886867 7.60780702 39.7186426 7.60780702 41.2018935 5.17254386 41.2018935 8.62605263"></polygon>
                <path d="M45.4407726,7.65207018 C44.7698115,7.65207018 44.3106684,7.12961404 44.3106684,6.48312281 C44.3106684,5.83680702 44.7698115,5.30540351 45.4407726,5.30540351 C46.1115588,5.30540351 46.5708769,5.83680702 46.5708769,6.48312281 C46.5708769,7.12961404 46.1115588,7.65207018 45.4407726,7.65207018 M45.4407726,4.24277193 C44.1429281,4.24277193 43.1628981,5.24347368 43.1628981,6.48312281 C43.1628981,7.72294737 44.1429281,8.71470175 45.4407726,8.71470175 C46.7386171,8.71470175 47.7184723,7.72294737 47.7184723,6.48312281 C47.7184723,5.24347368 46.7386171,4.24277193 45.4407726,4.24277193" id="Fill-13" fill="#FEFEFE"></path>
                <path d="M49.5669037,5.83668421 C49.7257235,5.61545614 50.1231228,5.30545614 50.6086776,5.30545614 C50.8734938,5.30545614 51.1029779,5.39387719 51.253227,5.54457895 C51.4120468,5.70387719 51.5091228,5.9252807 51.5091228,6.35036842 L51.5091228,8.62615789 L52.657068,8.62615789 L52.657068,6.43878947 C52.657068,5.70387719 52.4980733,5.27001754 52.215591,4.93352632 C51.8624443,4.5084386 51.3237164,4.24282456 50.7321652,4.24282456 C50.2555309,4.24282456 49.849386,4.41107018 49.5226511,4.67668421 L49.5226511,4.33142105 L48.4191334,4.33142105 L48.4191334,8.62615789 L49.5669037,8.62615789 L49.5669037,5.83668421 Z" id="Fill-15" fill="#FEFEFE"></path>
                <path d="M56.5940322,6.30612281 L56.5940322,8.62612281 L57.7418025,8.62612281 L57.7418025,6.35033333 C57.7418025,6.17314035 57.7243113,6.01384211 57.7062954,5.87208772 C57.8567194,5.65068421 58.2450233,5.30542105 58.7394986,5.30542105 C58.9600622,5.30542105 59.2072124,5.37629825 59.3838731,5.57103509 C59.5162813,5.7215614 59.5956912,5.91629825 59.5956912,6.30612281 L59.5956912,8.62612281 L60.7436364,8.62612281 L60.7436364,6.35033333 C60.7436364,5.71278947 60.5846417,5.26998246 60.3109049,4.93349123 C59.9665039,4.50840351 59.4017141,4.24278947 58.8101629,4.24278947 C58.174359,4.24278947 57.635806,4.55261404 57.2914049,4.91577193 C56.9559244,4.50840351 56.4352124,4.24278947 55.8525816,4.24278947 C55.4375163,4.24278947 55.0313714,4.37559649 54.6957159,4.67664912 L54.6957159,4.33138596 L53.5923731,4.33138596 L53.5923731,8.62612281 L54.7399686,8.62612281 L54.7399686,5.83664912 C54.8989633,5.63296491 55.251935,5.30542105 55.7376647,5.30542105 C55.9584032,5.30542105 56.2055534,5.37629825 56.3820392,5.57103509 C56.5147972,5.7215614 56.5940322,5.91629825 56.5940322,6.30612281" id="Fill-17" fill="#FEFEFE"></path>
                <path d="M63.6608655,7.65207018 C62.9897295,7.65207018 62.5305864,7.12961404 62.5305864,6.48312281 C62.5305864,5.83680702 62.9897295,5.30540351 63.6608655,5.30540351 C64.3316518,5.30540351 64.7909698,5.83680702 64.7909698,6.48312281 C64.7909698,7.12961404 64.3316518,7.65207018 63.6608655,7.65207018 M63.6608655,4.24277193 C62.3628461,4.24277193 61.382991,5.24347368 61.382991,6.48312281 C61.382991,7.72294737 62.3628461,8.71470175 63.6608655,8.71470175 C64.9587101,8.71470175 65.9383903,7.72294737 65.9383903,6.48312281 C65.9383903,5.24347368 64.9587101,4.24277193 63.6608655,4.24277193" id="Fill-19" fill="#FEFEFE"></path>
                <path d="M69.5916477,8.28084211 L69.5916477,8.62610526 L70.6953403,8.62610526 L70.6953403,4.33136842 L69.5473951,4.33136842 L69.5473951,7.12084211 C69.3885753,7.32452632 69.0352537,7.65207018 68.5498739,7.65207018 C68.3289604,7.65207018 68.0819852,7.58119298 67.9051495,7.38645614 C67.7730912,7.23592982 67.6933314,7.04119298 67.6933314,6.65154386 L67.6933314,4.33136842 L66.545736,4.33136842 L66.545736,6.60715789 C66.545736,7.24470175 66.7045558,7.68750877 66.9784675,8.024 C67.3139481,8.44031579 67.8434057,8.71470175 68.4349569,8.71470175 C68.8498473,8.71470175 69.2559922,8.58189474 69.5916477,8.28084211" id="Fill-21" fill="#FEFEFE"></path>
                <path d="M72.387838,6.81068421 C72.387838,7.42173684 72.4850889,7.80261404 72.7056525,8.0947193 C72.9970553,8.48436842 73.5002761,8.7147193 74.1889034,8.7147193 C74.4098168,8.7147193 74.753868,8.6792807 74.904292,8.62612281 L74.7274564,7.65208772 C74.6480465,7.66980702 74.427308,7.69629825 74.2595677,7.69629825 C73.9770853,7.69629825 73.791679,7.61664912 73.6769369,7.48384211 C73.579686,7.36875439 73.5356083,7.2092807 73.5356083,6.94366667 L73.5356083,5.30542105 L74.9483698,5.30542105 L74.9483698,4.33138596 L73.5356083,4.33138596 L73.5356083,3.13577193 L72.387838,3.13577193 L72.387838,4.33138596 L71.1961648,4.33138596 L71.1961648,5.30542105 L72.387838,5.30542105 L72.387838,6.81068421 Z" id="Fill-23" fill="#FEFEFE"></path>
                <path d="M78.5244387,5.54457895 C78.6832585,5.70387719 78.7805094,5.9252807 78.7805094,6.35036842 L78.7805094,8.62615789 L79.9281048,8.62615789 L79.9281048,6.43878947 C79.9281048,5.70387719 79.769285,5.27001754 79.4868027,4.93352632 C79.1334811,4.5084386 78.5949281,4.24282456 78.0033769,4.24282456 C77.5620747,4.24282456 77.1561048,4.39335088 76.8381154,4.64124561 L76.8381154,2.33878947 L75.69052,2.33878947 L75.69052,8.62615789 L76.8381154,8.62615789 L76.8381154,5.83668421 C76.9971101,5.61545614 77.3943345,5.30545614 77.8798892,5.30545614 C78.1447055,5.30545614 78.3743645,5.39387719 78.5244387,5.54457895" id="Fill-25" fill="#FEFEFE"></path>
                <path d="M82.1711019,7.74064912 C81.7385454,7.74064912 81.2881479,7.58117544 80.99692,7.3155614 L80.4403511,8.13907018 C80.9439217,8.511 81.5706302,8.71468421 82.1621814,8.71468421 C83.0628016,8.71468421 83.8661708,8.20994737 83.8661708,7.3864386 C83.8661708,5.8987193 81.7913687,6.12012281 81.7913687,5.56222807 C81.7913687,5.34082456 82.056185,5.21678947 82.3741744,5.21678947 C82.6832433,5.21678947 82.9744712,5.34959649 83.1952097,5.50907018 L83.7337627,4.67661404 C83.4512804,4.45521053 82.8420631,4.24275439 82.285844,4.24275439 C81.4382221,4.24275439 80.6435984,4.7564386 80.6435984,5.57994737 C80.6435984,6.96135088 82.7184005,6.731 82.7184005,7.37749123 C82.7184005,7.59012281 82.4801708,7.74064912 82.1711019,7.74064912" id="Fill-27" fill="#FEFEFE"></path>
                <path d="M87.691244,6.35033333 L87.691244,8.62612281 L88.8390143,8.62612281 L88.8390143,6.43875439 C88.8390143,5.70384211 88.6800196,5.26998246 88.3977122,4.93349123 C88.0443906,4.50840351 87.5056627,4.24278947 86.9142864,4.24278947 C86.4729843,4.24278947 86.0668394,4.39331579 85.7490249,4.64121053 L85.7490249,2.33875439 L84.6012546,2.33875439 L84.6012546,8.62612281 L85.7490249,8.62612281 L85.7490249,5.83664912 C85.9078447,5.61542105 86.305244,5.30542105 86.7907988,5.30542105 C87.055615,5.30542105 87.2850991,5.39384211 87.4353482,5.54454386 C87.5939931,5.70384211 87.691244,5.92524561 87.691244,6.35033333" id="Fill-29" fill="#FEFEFE"></path>
                <mask id="mask-2" fill="white">
                    <use xlink:href="#path-1"></use>
                </mask>
                <g id="Clip-32"></g>
                <polygon id="Fill-31" fill="#FEFEFE" mask="url(#mask-2)" points="89.7560936 8.62631579 90.903864 8.62631579 90.903864 4.33157895 89.7560936 4.33157895"></polygon>
                <path d="M90.3297689,3.54322807 C90.7446594,3.54322807 91.0803148,3.22445614 91.0803148,2.80814035 C91.0803148,2.392 90.7446594,2.07322807 90.3297689,2.07322807 C89.9147035,2.07322807 89.5793979,2.392 89.5793979,2.80814035 C89.5793979,3.22445614 89.9147035,3.54322807 90.3297689,3.54322807" id="Fill-33" fill="#FEFEFE" mask="url(#mask-2)"></path>
                <path d="M92.9993931,4.76529825 L92.9993931,4.3314386 L91.8957005,4.3314386 L91.8957005,8.62617544 L93.0436458,8.62617544 L93.0436458,5.92529825 C93.1847995,5.66845614 93.5821988,5.30547368 94.0854196,5.30547368 C94.2531599,5.30547368 94.4209002,5.32319298 94.5003101,5.34968421 L94.6328931,4.2782807 C94.5092306,4.2605614 94.4119797,4.24284211 94.2442394,4.24284211 C93.7235274,4.24284211 93.2556387,4.44652632 92.9993931,4.76529825" id="Fill-34" fill="#FEFEFE" mask="url(#mask-2)"></path>
                <path d="M95.97067,5.92535088 C96.0238431,5.53570175 96.4123219,5.17254386 96.8889562,5.17254386 C97.3568449,5.17254386 97.7014208,5.54447368 97.7365781,5.92535088 L95.97067,5.92535088 Z M98.9107601,6.43885965 C98.9107601,5.24342105 98.0720587,4.2427193 96.8889562,4.2427193 C95.6176982,4.2427193 94.8054085,5.28780702 94.8054085,6.48324561 C94.8054085,7.82921053 95.7677724,8.71464912 97.0479509,8.71464912 C97.7099915,8.71464912 98.3898731,8.44026316 98.8047636,7.94429825 L98.1514686,7.28903509 C97.9483961,7.5104386 97.5599173,7.785 97.0745375,7.785 C96.4651452,7.785 95.9795905,7.36868421 95.9178466,6.76657895 L98.8841735,6.76657895 C98.9018396,6.66921053 98.9107601,6.55412281 98.9107601,6.43885965 Z" id="Fill-35" fill="#FEFEFE" mask="url(#mask-2)"></path>
                <path d="M39.6037781,16.9095439 C39.3653735,17.1397193 39.0386385,17.2814737 38.5002604,17.2814737 L36.8316032,17.2814737 L36.8316032,14.6160351 L38.5002604,14.6160351 C39.0386385,14.6160351 39.3653735,14.7665614 39.6037781,14.9967368 C39.8511032,15.2358596 40.009923,15.5812982 40.009923,15.9530526 C40.009923,16.3249825 39.8511032,16.6704211 39.6037781,16.9095439 Z M36.8316032,12.0921754 L38.297188,12.0921754 C38.7650767,12.0921754 39.0300678,12.2249825 39.2152993,12.4198947 C39.3830396,12.5969123 39.4802905,12.8360351 39.4802905,13.1016491 C39.4802905,13.3674386 39.3830396,13.606386 39.2152993,13.7835789 C39.0300678,13.9784912 38.7650767,14.1112982 38.297188,14.1112982 L36.8316032,14.1112982 L36.8316032,12.0921754 Z M39.4537039,14.2705965 C39.7891845,13.9960351 40.009923,13.5709474 40.009923,13.1016491 C40.009923,12.6677895 39.8245166,12.2781404 39.5331138,12.0035789 C39.2595519,11.7469123 38.8974848,11.5874386 38.3235996,11.5874386 L36.3019707,11.5874386 L36.3019707,17.7862105 L38.5266721,17.7862105 C39.1712216,17.7862105 39.6037781,17.6088421 39.9305131,17.3169123 C40.3013258,16.9802456 40.5397304,16.5021754 40.5397304,15.9530526 C40.5397304,15.2093684 40.0893329,14.5628772 39.4537039,14.2705965 Z" id="Fill-36" fill="#FEFEFE" mask="url(#mask-2)"></path>
                <path d="M44.4140936,16.5552281 C44.1492774,17.0599649 43.61947,17.3964561 43.0721714,17.3964561 C42.6306943,17.3964561 42.2688021,17.184 42.0568092,16.8652281 C41.9156555,16.6527719 41.8273251,16.3869825 41.8273251,15.8203158 L41.8273251,13.7482105 L41.3241042,13.7482105 L41.3241042,15.8999649 C41.3241042,16.4401404 41.4122597,16.7678596 41.5623339,17.0422456 C41.8537367,17.5559298 42.4099558,17.8747018 43.0721714,17.8747018 C43.6282155,17.8747018 44.1492774,17.6090877 44.4317597,17.2371579 L44.4317597,17.7861053 L44.9173145,17.7861053 L44.9173145,13.7482105 L44.4140936,13.7482105 L44.4140936,16.5552281 Z" id="Fill-37" fill="#FEFEFE" mask="url(#mask-2)"></path>
                <path d="M46.3558929,11.8973684 C46.1087428,11.8973684 45.9145908,12.1010526 45.9145908,12.3489474 C45.9145908,12.5970175 46.1087428,12.7917544 46.3558929,12.7917544 C46.603218,12.7917544 46.8062905,12.5970175 46.8062905,12.3489474 C46.8062905,12.1010526 46.603218,11.8973684 46.3558929,11.8973684" id="Fill-38" fill="#FEFEFE" mask="url(#mask-2)"></path>
                <polygon id="Fill-39" fill="#FEFEFE" mask="url(#mask-2)" points="46.1088127 17.7861404 46.6120336 17.7861404 46.6120336 13.7478947 46.1088127 13.7478947"></polygon>
                <polygon id="Fill-40" fill="#FEFEFE" mask="url(#mask-2)" points="47.7895389 17.7861404 48.2927597 17.7861404 48.2927597 11.4987719 47.7895389 11.4987719"></polygon>
                <path d="M52.676973,16.5108596 C52.3589836,17.0599825 51.8293511,17.3966491 51.2377998,17.3966491 C50.8935737,17.3966491 50.5845048,17.272614 50.3284341,17.0954211 C49.9399553,16.8210351 49.6926302,16.3248947 49.6926302,15.7671754 C49.6926302,15.2445439 49.9046231,14.7752456 50.2577698,14.4831404 C50.5402521,14.2527895 50.8935737,14.1378772 51.2288793,14.1378772 C51.9705048,14.1378772 52.5003122,14.6512105 52.676973,14.9524386 L52.676973,16.5108596 Z M52.676973,14.2882281 C52.2972398,13.8810351 51.7763528,13.6594561 51.2201337,13.6594561 C50.734579,13.6594561 50.2754359,13.8368246 49.9399553,14.1112105 C49.4809871,14.5008596 49.1895843,15.094193 49.1895843,15.7671754 C49.1895843,16.4931404 49.5161443,17.1219123 50.0459518,17.4940175 C50.4431761,17.7773509 50.8669871,17.8747193 51.2467203,17.8747193 C51.8734288,17.8747193 52.3944906,17.6001579 52.694639,17.1929649 L52.694639,17.7862982 L53.1800189,17.7862982 L53.1800189,11.4987544 L52.676973,11.4987544 L52.676973,14.2882281 Z" id="Fill-41" fill="#FEFEFE" mask="url(#mask-2)"></path>
                <path d="M54.6187548,11.8973684 C54.3716046,11.8973684 54.1772777,12.1010526 54.1772777,12.3489474 C54.1772777,12.5970175 54.3716046,12.7917544 54.6187548,12.7917544 C54.8660799,12.7917544 55.0691523,12.5970175 55.0691523,12.3489474 C55.0691523,12.1010526 54.8660799,11.8973684 54.6187548,11.8973684" id="Fill-42" fill="#FEFEFE" mask="url(#mask-2)"></path>
                <polygon id="Fill-43" fill="#FEFEFE" mask="url(#mask-2)" points="54.3716396 17.7861404 54.8748604 17.7861404 54.8748604 13.7478947 54.3716396 13.7478947"></polygon>
                <path d="M57.9637829,13.6596316 C57.3988182,13.6596316 56.8688359,13.8810351 56.5422758,14.3148947 L56.5422758,13.7482281 L56.0568959,13.7482281 L56.0568959,17.7861228 L56.5601168,17.7861228 L56.5601168,14.9789298 C56.8688359,14.4477018 57.3722316,14.1377018 57.9548624,14.1377018 C58.3965143,14.1377018 58.7760726,14.341386 59.0055567,14.6778772 C59.1468853,14.8815614 59.2352157,15.1384035 59.2352157,15.669807 L59.2352157,17.7861228 L59.7384366,17.7861228 L59.7384366,15.6343684 C59.7384366,14.9701579 59.6145991,14.6336667 59.3942104,14.341386 C59.0674754,13.8985789 58.5464136,13.6596316 57.9637829,13.6596316" id="Fill-44" fill="#FEFEFE" mask="url(#mask-2)"></path>
                <path d="M64.0499915,16.5110351 C63.7320021,17.0599825 63.2021947,17.3964737 62.6106435,17.3964737 C62.2665922,17.3964737 61.9573484,17.272614 61.7012777,17.0954211 C61.3129739,16.8208596 61.0656488,16.3250702 61.0656488,15.7671754 C61.0656488,15.2447193 61.2774668,14.7754211 61.6307883,14.4831404 C61.9130958,14.2527895 62.2665922,14.1377018 62.6018979,14.1377018 C63.3435233,14.1377018 63.8731558,14.651386 64.0499915,14.9524386 L64.0499915,16.5110351 Z M64.0676576,14.3059474 C63.7054155,13.8985789 63.175783,13.6594561 62.5931523,13.6594561 C62.1075975,13.6594561 61.6484544,13.8366491 61.3129739,14.1112105 C60.8540057,14.5008596 60.5626028,15.094193 60.5626028,15.7671754 C60.5626028,16.4933158 60.8891629,17.1219123 61.4187954,17.4940175 C61.8161947,17.7771754 62.2398307,17.8747193 62.619564,17.8747193 C63.2462724,17.8747193 63.7494933,17.6001579 64.0499915,17.2105088 L64.0499915,17.7862982 C64.0499915,18.2910351 64.0146594,18.5833158 63.8909968,18.8310351 C63.6879244,19.2294561 63.2730339,19.5217368 62.5931523,19.5217368 C61.9484279,19.5217368 61.4541276,19.2206842 61.1538042,18.7424386 L60.7567548,19.0347193 C61.1627247,19.6457719 61.8161947,19.9999825 62.5840569,19.9999825 C63.4671859,19.9999825 64.0408961,19.6191053 64.3322989,19.0701579 C64.5000392,18.7515614 64.5530375,18.3617368 64.5530375,17.7684035 L64.5530375,13.7480526 L64.0676576,13.7480526 L64.0676576,14.3059474 Z" id="Fill-45" fill="#FEFEFE" mask="url(#mask-2)"></path>
                <path d="M70.8559966,14.7132982 C69.9730426,14.1641754 68.7281963,14.0401404 68.7281963,13.1015439 C68.7281963,12.4287368 69.2845903,12.0036491 69.9730426,12.0036491 C70.4851839,12.0036491 70.8383306,12.1894386 71.2003977,12.508386 L71.5360532,12.1187368 C71.253221,11.8708421 70.7501751,11.4987368 69.9555514,11.4987368 C68.9666009,11.4987368 68.1985638,12.1631228 68.1985638,13.128386 C68.1985638,13.7569825 68.578297,14.1199649 69.0374401,14.4032982 C69.9378853,14.961193 71.2619666,15.0852281 71.2619666,16.2097895 C71.2619666,16.9271579 70.6086716,17.3699649 69.9908836,17.3699649 C69.1784189,17.3699649 68.693039,16.9538246 68.3309719,16.4845263 L67.942668,16.829614 C68.4721256,17.5294386 69.1696733,17.8747018 69.9908836,17.8747018 C70.9973253,17.8747018 71.7919489,17.1929474 71.7919489,16.2097895 C71.7919489,15.4925965 71.368138,15.0320702 70.8559966,14.7132982" id="Fill-46" fill="#FEFEFE" mask="url(#mask-2)"></path>
                <path d="M74.4329751,17.3964386 C73.5236094,17.3964386 72.8613938,16.6702982 72.8613938,15.7671404 C72.8613938,14.863807 73.5236094,14.1376667 74.4329751,14.1376667 C75.3423408,14.1376667 76.0043814,14.863807 76.0043814,15.7671404 C76.0043814,16.6702982 75.3423408,17.3964386 74.4329751,17.3964386 M74.4329751,13.6595965 C73.2322065,13.6595965 72.358173,14.6071404 72.358173,15.7671404 C72.358173,16.9271404 73.2322065,17.8746842 74.4329751,17.8746842 C75.6337436,17.8746842 76.5076023,16.9271404 76.5076023,15.7671404 C76.5076023,14.6071404 75.6337436,13.6595965 74.4329751,13.6595965" id="Fill-47" fill="#FEFEFE" mask="url(#mask-2)"></path>
                <path d="M79.2865988,17.3964386 C78.3419009,17.3964386 77.6357825,16.6702982 77.6357825,15.7671404 C77.6357825,14.8462632 78.3684875,14.1378421 79.2159345,14.1378421 C79.7279009,14.1378421 80.1342207,14.3592456 80.4343691,14.6513509 L80.7521836,14.288193 C80.3902913,13.925386 79.8870705,13.6594211 79.2159345,13.6594211 C78.0064203,13.6594211 77.1323867,14.6336316 77.1323867,15.7671404 C77.1323867,17.0599474 78.1741606,17.8748596 79.2955193,17.8748596 C79.9134822,17.8748596 80.4871924,17.6180175 80.8845917,17.1750351 L80.5225246,16.8385439 C80.1782984,17.2017018 79.7544875,17.3964386 79.2865988,17.3964386" id="Fill-48" fill="#FEFEFE" mask="url(#mask-2)"></path>
                <polygon id="Fill-49" fill="#FEFEFE" mask="url(#mask-2)" points="81.5885936 17.7861404 82.0918145 17.7861404 82.0918145 13.7478947 81.5885936 13.7478947"></polygon>
                <path d="M81.8357963,11.8973684 C81.5886461,11.8973684 81.3946691,12.1010526 81.3946691,12.3489474 C81.3946691,12.5970175 81.5886461,12.7917544 81.8357963,12.7917544 C82.0831214,12.7917544 82.2861938,12.5970175 82.2861938,12.3489474 C82.2861938,12.1010526 82.0831214,11.8973684 81.8357963,11.8973684" id="Fill-50" fill="#FEFEFE" mask="url(#mask-2)"></path>
                <path d="M83.4829394,15.350807 C83.6330136,14.6515088 84.1629959,14.1376491 84.8780348,14.1376491 C85.5755825,14.1376491 86.1228811,14.6425614 86.2287027,15.350807 L83.4829394,15.350807 Z M84.8780348,13.6595789 C83.7390101,13.6595789 82.9534818,14.6071228 82.9534818,15.7671228 C82.9534818,17.0244912 83.8448316,17.8748421 84.9749359,17.8748421 C85.7433228,17.8748421 86.317033,17.5115088 86.6173564,17.130807 L86.2640348,16.7944912 C85.9462203,17.1839649 85.5049182,17.3964211 84.9749359,17.3964211 C84.0479041,17.3964211 83.4920348,16.6702807 83.4565277,15.8113333 L86.7410189,15.8113333 C86.7497645,15.7316842 86.7497645,15.6697544 86.7497645,15.6343158 C86.7497645,14.5095789 85.9551408,13.6595789 84.8780348,13.6595789 Z" id="Fill-51" fill="#FEFEFE" mask="url(#mask-2)"></path>
                <path d="M88.5953449,12.6501754 L88.092124,12.6501754 L88.092124,13.7482456 L86.9620198,13.7482456 L86.9620198,14.2261404 L88.092124,14.2261404 L88.092124,16.4224561 C88.092124,16.9007018 88.1893749,17.1929825 88.3658608,17.4140351 C88.6394226,17.7596491 89.072329,17.8745614 89.4429668,17.8745614 C89.6017866,17.8745614 89.8312707,17.8482456 89.9638537,17.8038596 L89.8755233,17.3433333 C89.7254491,17.3877193 89.5577088,17.3964912 89.4429668,17.3964912 C89.1426435,17.3964912 88.9131594,17.29 88.7720057,17.1129825 C88.6660092,16.9803509 88.5953449,16.8033333 88.5953449,16.4401754 L88.5953449,14.2261404 L89.9638537,14.2261404 L89.9638537,13.7482456 L88.5953449,13.7482456 L88.5953449,12.6501754 Z" id="Fill-52" fill="#FEFEFE" mask="url(#mask-2)"></path>
                <polygon id="Fill-53" fill="#FEFEFE" mask="url(#mask-2)" points="92.5592104 16.8829825 91.0495479 13.7480702 90.4845832 13.7480702 92.3031398 17.4584211 91.199797 19.9115789 91.7292546 19.9115789 94.5192705 13.7480702 93.9805426 13.7480702"></polygon>
            </g>
        </g>
    </g>
</svg>