<?xml version="1.0" encoding="UTF-8"?>
<svg width="124px" height="140px" viewBox="0 0 124 140" version="1.1" xmlns="http://www.w3.org/2000/svg" xmlns:xlink="http://www.w3.org/1999/xlink">
    <!-- Generator: Sketch 52.3 (67297) - http://www.bohemiancoding.com/sketch -->
    <title>logo</title>
    <desc>Created with Sketch.</desc>
    <defs>
        <polygon id="path-1" points="0.235388936 0.0378106061 113.567115 0.0378106061 113.567115 84.5060682 0.235388936 84.5060682"></polygon>
        <polygon id="path-3" points="0 0.518636364 109.200626 0.518636364 109.200626 139.469644 0 139.469644"></polygon>
        <polygon id="path-5" points="0.235388936 0.0378106061 113.567115 0.0378106061 113.567115 84.5060682 0.235388936 84.5060682"></polygon>
        <polygon id="path-7" points="0 0.518636364 109.200626 0.518636364 109.200626 139.469644 0 139.469644"></polygon>
        <polygon id="path-9" points="0.235388936 0.0378106061 113.567115 0.0378106061 113.567115 84.5060682 0.235388936 84.5060682"></polygon>
    </defs>
    <g id="Page-1" stroke="none" stroke-width="1" fill="none" fill-rule="evenodd">
        <g id="Dragons_Generic_WF_v4" transform="translate(-102.000000, -33.000000)">
            <g id="logo" transform="translate(102.000000, 33.000000)">
                <path d="M21.6663353,16.2140682 C21.1471183,15.5713409 20.6031013,15.0373258 20.0369226,14.612553 C18.8354417,13.9576288 17.6888374,13.6304318 16.5971098,13.6304318 L10.9706757,13.6304318 L10.9131609,13.6304318 C10.9131609,13.6304318 12.7583864,16.0263409 12.7583864,16.1042955 L12.7583864,19.7978561 L12.7583864,23.3466439 L12.7583864,25.7483864 L17.1395438,25.7483864 C18.0988289,25.7483864 19.1251268,25.3845985 20.2173821,24.6564924 C21.9074757,23.2983864 22.7527864,21.6846742 22.7527864,19.816947 L22.7527864,19.4165682 C22.7527864,18.3914924 22.3902843,17.3239924 21.6663353,16.2140682 M19.4211438,22.5092955 C18.6971949,23.2374015 17.7795949,23.6011894 16.6688715,23.6011894 L14.9307609,23.6011894 L14.9307609,15.7770985 L16.3786587,15.7770985 C16.8435268,15.7770985 17.326863,15.837553 17.8276119,15.9595227 C19.6865566,16.7358864 20.6162928,17.996947 20.6162928,19.7437652 C20.6162928,20.720053 20.2173821,21.64225 19.4211438,22.5092955" id="Fill-1" fill="#FFFFFF"></path>
                <path d="M31.7361379,20.7263106 L31.7361379,20.6897197 C31.8569719,20.6897197 32.0743677,20.6287348 32.3872698,20.5078258 C33.8604953,19.7500227 34.5971081,18.6703258 34.5971081,17.2692652 L34.5971081,17.1600227 C34.5971081,16.565553 34.4398655,15.9832803 34.1259081,15.4132045 C33.3291421,14.2242652 32.3519166,13.6303258 31.1931762,13.6303258 L22.7527336,13.6303258 L24.6027081,16.1041894 L24.6027081,21.6437348 L24.6027081,23.3465379 L24.6027081,25.7482803 L26.7750826,25.7482803 L26.7750826,20.7629015 L29.0208017,20.7629015 L32.9676953,25.7482803 L35.6672017,25.7482803 L31.7361379,20.7263106 Z M26.7750826,18.6157045 L26.7750826,15.7769924 L30.757857,15.7769924 L31.4464528,15.8496439 C32.0981123,16.1471439 32.424206,16.5475227 32.424206,17.0507803 L32.424206,17.3419167 L32.3872698,17.5964621 C32.1587932,18.2757803 31.6031677,18.6157045 30.7225038,18.6157045 L26.7750826,18.6157045 Z" id="Fill-3" fill="#FFFFFF"></path>
                <path d="M40.6074145,21.1991288 L41.8933209,17.7754924 L43.1781719,21.1991288 L40.6074145,21.1991288 Z M47.0527762,25.2750379 C44.1321804,17.5596591 42.6473464,13.7027652 42.5993294,13.7027652 L38.4223762,13.7027652 L40.2085038,16.1045076 L36.5365209,25.7480682 L36.6241123,25.7480682 L38.7975421,25.7480682 L39.7388868,23.3829167 L44.0477549,23.3829167 L44.9885719,25.7480682 L47.1973549,25.7480682 L47.2342911,25.7114773 L47.0527762,25.2750379 Z" id="Fill-5" fill="#FFFFFF"></path>
                <path d="M53.8185328,18.6157045 L52.6239115,20.7629015 L55.4479455,20.7629015 L55.4479455,23.6010833 L53.7462434,23.6010833 C52.9494774,23.6010833 52.2608817,23.4313864 51.6825668,23.0914621 C50.4024647,22.1761591 49.7624136,21.0466136 49.7624136,19.7436591 C49.7624136,19.1104773 49.90752,18.6517652 49.90752,18.6517652 C50.6135285,16.73525 51.9775285,15.7769924 53.9989923,15.7769924 L56.2447115,15.7769924 L56.6045753,16.7596439 L56.6024647,16.7601742 L56.749154,17.1531288 L56.750737,17.1594924 C56.750737,17.1594924 59.2360136,13.7512348 59.2360136,13.6297955 L53.7098349,13.6297955 C52.316286,13.6297955 51.0119115,14.1033561 49.7993498,15.0488864 C48.3509243,16.3894924 47.6264477,17.8451742 47.6264477,19.4159318 L47.6264477,19.78025 C47.6264477,21.4056288 48.2670264,22.8613106 49.5460732,24.1472955 C50.7644391,25.2147955 51.9954689,25.7482803 53.2391626,25.7482803 L57.5485583,25.7482803 L57.6208477,25.7482803 L57.6208477,18.6883561 L57.5485583,18.6157045 L53.8185328,18.6157045 Z" id="Fill-7" fill="#FFFFFF"></path>
                <path d="M65.9320136,13.5936288 C62.5824306,13.5936288 59.8670945,16.3225682 59.8670945,19.6889318 C59.8670945,23.0558258 62.5824306,25.7847652 65.9320136,25.7847652 C69.2815966,25.7847652 71.9969328,23.0558258 71.9969328,19.6889318 C71.9969328,16.3225682 69.2815966,13.5936288 65.9320136,13.5936288 M65.9320136,23.6009773 C63.7823285,23.6009773 62.0394689,21.8499167 62.0394689,19.6889318 C62.0394689,17.5284773 63.7823285,15.7774167 65.9320136,15.7774167 C68.0816987,15.7774167 69.825086,17.5284773 69.825086,19.6889318 C69.825086,21.8499167 68.0816987,23.6009773 65.9320136,23.6009773" id="Fill-9" fill="#FFFFFF"></path>
                <path d="M80.4853923,13.6301136 L82.3089838,15.9353409 L82.3089838,15.9348106 L82.3089838,21.563447 L82.273103,21.563447 C80.8964391,19.743447 78.821154,17.0993561 76.045137,13.6301136 L72.6280136,13.6301136 L74.4510774,15.9353409 L74.4510774,21.9558712 L74.4510774,23.3463258 L74.4510774,25.7480682 L76.6239796,25.7480682 L76.6239796,17.8513258 L82.8519455,25.7480682 L84.4460051,25.7480682 L84.4460051,13.6301136 L80.4853923,13.6301136 Z" id="Fill-11" fill="#FFFFFF"></path>
                <path d="M92.9024357,18.6157045 L89.7924102,18.6157045 C89.0141123,18.6157045 88.3803932,17.9793409 88.3803932,17.1960833 C88.3803932,16.4133561 89.0141123,15.7764621 89.7924102,15.7764621 L93.2997634,15.7764621 L93.8205634,17.1600227 L96.3047847,13.6303258 L94.0991677,13.6303258 L89.7924102,13.6303258 C87.8363762,13.6303258 86.2449549,15.2297197 86.2449549,17.1960833 C86.2449549,19.162447 87.8363762,20.7623712 89.7924102,20.7623712 L92.9024357,20.7623712 C93.6807336,20.7623712 94.3144528,21.3987348 94.3144528,22.1819924 C94.3144528,22.9647197 93.6807336,23.6016136 92.9024357,23.6016136 L89.2220102,23.6016136 L88.7006826,22.2185833 L86.2164613,25.74775 L88.2590315,25.74775 L88.4231336,25.74775 L92.9024357,25.74775 C94.8579421,25.74775 96.4498911,24.1483561 96.4498911,22.1819924 C96.4498911,20.2156288 94.8579421,18.6157045 92.9024357,18.6157045" id="Fill-13" fill="#FFFFFF"></path>
                <g id="Group-17" transform="translate(10.025532, 31.299545)">
                    <mask id="mask-2" fill="white">
                        <use xlink:href="#path-1"></use>
                    </mask>
                    <g id="Clip-16"></g>
                    <path d="M66.1442911,44.8558409 C64.8678826,45.6104621 63.3223677,46.37675 61.3985209,47.2156894 C61.0576528,47.3641742 60.671406,47.5190227 60.2197294,47.6881894 C57.318657,48.7758409 53.9326655,49.4254621 51.1613974,49.4254621 C50.20264,49.4254621 49.5040187,49.3453864 49.0486485,49.2557652 C49.9171762,48.0021288 52.084274,46.1248561 55.387423,44.684553 C57.9539591,43.5672045 60.4909464,42.9515227 62.5319336,42.9515227 C64.0172953,42.9515227 65.1739251,43.2728864 65.705806,43.833947 C65.8667421,44.0031136 65.9279506,44.0678106 66.0640868,44.4952348 L66.1442911,44.8558409 Z M106.78938,18.5740227 C106.737142,18.5724318 105.480257,18.5390227 103.761142,18.5390227 L103.647695,18.5390227 C97.7152187,18.5390227 85.7932783,19.9793258 72.4477123,29.6101591 C71.9707081,29.4759924 71.4868443,29.3593258 71.0008698,29.26175 L69.2996953,28.9202348 L69.1308443,28.8868258 L68.9588272,28.8698561 C68.1652272,28.794553 67.3399677,28.7563712 66.5057379,28.7563712 C61.7177549,28.7558409 56.2870826,30.019553 50.7983677,32.4106894 C42.6644953,35.9568258 36.6592017,41.49425 34.7348272,47.2225833 C33.66104,50.4187197 33.8821294,53.5231136 35.373823,56.2011439 C37.2317123,59.5351591 40.8224357,61.7878864 45.5307421,62.6862197 C44.64744,62.9227348 43.7931591,63.1178864 42.9985038,63.2552348 C41.5484953,63.5065985 40.1465038,63.6338712 38.8284102,63.6338712 C34.8598826,63.6338712 31.6791506,62.4915985 29.6276102,60.3311439 C28.0156102,58.6325833 27.1993209,56.4434924 27.1993209,53.8248561 C27.1993209,53.5225833 27.211457,53.1985682 27.2357294,52.8612955 C27.7032357,46.4997803 32.497023,39.1741742 40.0599677,33.2655379 C45.5972272,28.9409167 51.8689889,26.001447 57.7212613,24.9890985 C58.8836953,24.7881136 60.0292443,24.664553 61.1267762,24.6237197 L62.3641379,24.5812955 L62.3894655,24.5812955 L62.4876102,24.5791742 L64.8520528,24.5208409 L65.6013294,22.2654621 L68.1277634,14.6619773 L80.7140272,6.80182576 L88.7613634,1.77561364 L79.3648017,0.564401515 C76.6536868,0.214931818 73.8285974,0.0378106061 70.9686826,0.0378106061 C68.0238145,0.0378106061 64.9628613,0.225537879 61.8718315,0.59675 L61.8364783,0.600462121 L61.8021804,0.605234848 L57.2073209,1.25379545 L57.1561379,1.26068939 L57.1038996,1.27023485 C46.1998145,3.15864394 34.6683421,8.51576515 24.6333123,16.3557652 C10.3796443,27.4905379 1.2917634,41.9678106 0.323508085,55.0827348 C0.264937872,55.884553 0.235388936,56.6831894 0.235388936,57.4584924 C0.235388936,64.55925 2.66578894,70.8725076 7.26275915,75.7147045 C12.7240357,81.4663712 20.6009379,84.5060682 30.0423506,84.5060682 C32.7455506,84.5060682 35.5822485,84.252053 38.4743506,83.751447 C46.4056017,82.3800833 54.7489549,79.1510682 62.6015847,74.4149318 C63.7867081,73.6921288 65.6134655,72.5323561 67.9420272,70.713947 C72.1353379,67.4382652 75.7841038,63.61425 78.4931081,59.653947 L78.5047166,59.6375076 L78.5163251,59.6200076 L78.8851591,59.0679621 C79.0561209,58.8086439 79.2149464,58.5636439 79.3684953,58.3186439 C79.4581974,58.1765227 79.5537038,58.0216742 79.6555421,57.8546288 C79.792206,57.62925 79.9246485,57.4012197 80.0560357,57.1737197 C80.8021464,55.8760682 81.4147591,54.6118258 81.8843762,53.4059167 C83.1396783,50.17425 83.530674,48.09175 83.7660102,46.3226591 C83.7792017,46.2250833 83.7908102,46.1275076 83.8024187,46.0299318 L83.8736528,45.4062955 L83.9807677,45.2944015 C84.453023,44.8065227 84.9305549,44.3096288 85.3769549,43.8429621 C85.5975166,44.0943258 85.81544,44.358947 86.0301974,44.6378864 C86.1193719,44.754553 86.2074911,44.8712197 86.2934996,44.988947 C87.6902145,46.9033409 91.5416017,54.3074318 92.8744698,56.8963712 C94.3487506,52.5203106 96.0805294,47.8918258 97.693057,44.0036439 C98.2587081,42.5903864 98.8554911,41.2306894 99.4670485,39.9298561 C99.9519677,38.8793258 100.409449,37.9486439 100.822606,37.1807652 L100.822606,37.1828864 C102.667831,33.6165985 104.537329,30.6357652 106.019525,28.4556894 C106.021636,28.4525076 106.029023,28.4408409 106.029023,28.4408409 C106.037993,28.4265227 106.048546,28.4116742 106.058572,28.3978864 C106.749806,27.3818258 107.356614,26.5418258 107.832563,25.9028106 C108.000887,25.6737197 108.208785,25.41175 108.414044,25.1603864 C110.412819,22.5406894 112.558283,19.9581136 113.567168,18.7580379 L106.78938,18.5740227 Z" id="Fill-15" fill="#FAB31E" mask="url(#mask-2)"></path>
                </g>
                <path d="M78.708657,77.2118561 C77.096657,78.3185985 75.0620017,79.3903409 72.3181719,80.5867045 C71.9403677,80.7516288 71.51824,80.9202652 71.0306826,81.1032197 C67.8452017,82.2979924 64.2571166,82.9831439 61.1871932,82.9831439 C59.5857464,82.9831439 58.2454911,82.778447 57.5104613,82.4220833 C56.8999591,82.1267045 56.6820357,81.8376894 56.5596187,81.6186742 C56.4656953,81.448447 56.362274,81.1467045 56.5728102,80.5251894 C57.3020357,78.3520076 60.5687762,75.6347348 64.5193634,73.9128409 C67.40144,72.656553 70.182206,71.9920833 72.558257,71.9920833 C74.715857,71.9920833 76.3753464,72.5398864 77.3573209,73.5750379 C77.8095251,74.0496591 78.0226996,74.4357197 78.2612017,75.2099621 L78.6010145,76.7308712 L78.708657,77.2118561 Z M87.5210996,66.0823864 C88.311006,66.4127652 89.1515677,66.8073106 89.9525549,67.2607197 C89.7108868,67.4770833 89.4713294,67.6939773 89.2328272,67.9119318 C88.6888102,67.2045076 88.1073294,66.5994318 87.5210996,66.0823864 Z M116.755023,52.1311742 C116.741831,52.1306439 115.475449,52.0972348 113.786938,52.0972348 L113.673491,52.0967045 C107.989542,52.0967045 96.5293038,53.4935227 83.6359421,62.8507197 L82.878223,63.4006439 C82.1416102,63.1439773 81.3664783,62.9318561 80.5865974,62.775947 L78.885423,62.4344318 L78.8294911,62.4232955 L78.7709209,62.4174621 C78.0485549,62.349053 77.2945294,62.3135227 76.5304783,62.3135227 C72.0485379,62.3129924 66.9265464,63.5130682 61.7180187,65.7817045 C54.2701038,69.02875 48.5877379,74.1875379 46.8881464,79.2445076 C46.0243677,81.8180682 46.1863591,84.2919318 47.359874,86.3977652 C49.4034996,90.0632197 54.1540187,92.1653409 60.3941209,92.1653409 C62.6224272,92.1653409 64.9235506,91.8975379 67.2605549,91.3725379 C67.2188698,91.4006439 67.1787677,91.4271591 67.1354996,91.4563258 C63.7315677,93.7270833 57.82864,96.0158712 53.4042145,96.7800379 C51.830206,97.0531439 50.2989379,97.1920833 48.8547336,97.1920833 C44.2567081,97.1920833 40.5124357,95.8074621 38.0271591,93.1893561 C36.0315506,91.0861742 34.9772868,88.2978409 34.9772868,85.1239773 C34.9772868,84.7670833 34.9920613,84.3873864 35.0205549,83.9954924 C35.5344953,77.0071591 40.6496272,69.075947 48.7064613,62.7817803 C54.5297123,58.2339015 61.1555336,55.1374621 67.3660868,54.0625379 C68.6261379,53.8445833 69.8724698,53.710947 71.0692017,53.6664015 L72.3361123,53.6229167 L72.383074,53.6223864 L72.457474,53.6207955 L73.2457974,53.6022348 L73.4953804,52.8497348 L76.2787847,44.4741288 L89.5546996,36.1823106 L92.2367932,34.5070833 L89.1035506,34.1035227 C86.4874145,33.7667803 83.7588868,33.5949621 80.993423,33.5949621 C78.1372017,33.5949621 75.1664783,33.7779167 72.1640953,34.1379924 L67.5460187,34.7892045 L67.528606,34.7918561 L67.5111932,34.7950379 C56.9632783,36.6214015 45.7863932,41.821553 36.0378826,49.4377652 C22.2781038,60.1880682 13.5120953,74.0607955 12.5897464,86.5489015 C12.5359251,87.2945076 12.5079591,88.0374621 12.5079591,88.7581439 C12.5079591,95.2670833 14.7225464,101.041553 18.914274,105.456326 C23.9402315,110.74928 31.2551762,113.547689 40.0681464,113.547689 C42.6431251,113.547689 45.3521294,113.304811 48.1175932,112.825417 C55.7786826,111.50072 63.85504,108.371932 71.4707506,103.778447 C72.5999421,103.090114 74.3512443,101.977008 76.5885209,100.229129 C80.6018996,97.0950379 84.0860357,93.4449621 86.6668187,89.6739773 L87.0435677,89.1107955 C87.1986996,88.8753409 87.3480272,88.6451894 87.4931336,88.4139773 C87.5796698,88.2782197 87.6683166,88.133447 87.7617123,87.9785985 C87.8920443,87.7648864 88.0165719,87.5511742 88.1400443,87.3374621 C88.8260017,86.14375 89.3890145,84.9829167 89.8169464,83.8830682 C90.9213379,81.0422348 91.3139166,79.2052652 91.5640272,77.3226894 C91.5761634,77.2389015 91.5856613,77.1551136 91.5962145,77.0723864 L91.7555677,75.6713258 C91.8690145,75.5578409 91.976657,75.4523106 92.0916868,75.3351136 L92.3903421,75.0248864 C93.5000102,73.8799621 94.6344783,72.6857197 95.3330996,71.9475379 C96.2058485,72.656553 97.0437719,73.5304924 97.832623,74.5555682 C97.9344613,74.6876136 98.0336613,74.8196591 98.1307506,74.9522348 C99.967006,77.4679924 102.643823,83.530947 102.643823,83.530947 L103.4179,80.8661742 C106.878819,68.9550379 113.411772,59.4032197 116.05904,55.8491288 C116.640521,55.0589773 117.555483,54.0185227 117.565508,54.008447 L119.161151,52.1964015 L116.755023,52.1311742 Z" id="Fill-18" fill="#FFFFFF"></path>
                <path d="M94.7476613,70.1439242 L94.7524102,70.1471061 L94.7476613,70.1439242 Z" id="Fill-20" fill="#DC2F34"></path>
                <path d="M83.0541447,83.5514167 C82.6547064,83.8499773 82.2494638,84.1490682 81.8389447,84.4476288 C79.4169872,86.2108864 76.7950468,87.9380833 73.8992511,89.2002045 C72.8671489,89.6504318 71.8054979,90.0571742 70.7438468,90.4098258 L70.5744681,90.4665682 C69.9418043,90.9146742 69.0315915,91.5457348 67.7578213,92.3963409 C64.2631319,94.7270227 58.2219574,97.0932348 53.5949106,97.8929318 C46.5875915,99.1073258 40.769617,97.71475 37.2147745,93.9686894 C35.0038809,91.6390682 33.8541106,88.6014924 33.8541106,85.1242955 C33.8541106,84.7260379 33.8704681,84.321947 33.900017,83.912553 C34.4361191,76.6102803 39.7132426,68.3773258 48.0175489,61.8901288 C53.9811574,57.2314167 60.7853277,54.0559621 67.1747574,52.9502803 C68.4896851,52.7227803 69.7850894,52.5843712 71.0277277,52.5382348 C71.0277277,52.5382348 72.0255319,52.5037652 72.2962213,52.49475 C72.3416,52.4936894 72.3848681,52.4936894 72.4297191,52.4926288 L75.3313191,43.7606591 L75.3413447,43.7299015 L88.960766,35.2238409 C84.0931064,34.5959621 78.5553191,34.5084621 72.2962213,35.2588409 C71.9780426,35.304447 67.7018894,35.9074015 67.7018894,35.9074015 C57.3333787,37.7035379 46.3327319,42.8246742 36.727217,50.3289924 C23.2128,60.8867955 14.608783,74.4599015 13.7107064,86.631947 C13.6574128,87.3499773 13.6320851,88.0595227 13.6320851,88.7579318 C13.6320851,94.9836894 15.7179234,100.453765 19.7265532,104.676568 C25.9946213,111.27778 36.0090723,113.776038 47.9273191,111.713159 C55.455966,110.410735 63.3977702,107.331265 70.8926468,102.809902 C71.9944,102.138538 73.7103489,101.048235 75.8985532,99.3380076 C79.8929362,96.2192955 83.2446298,92.6832348 85.7420426,89.0342197 L86.1098213,88.4821742 C86.2565106,88.2589167 86.4026723,88.0361894 86.5425021,87.8113409 C86.6269277,87.6787652 86.7129362,87.5398258 86.803166,87.3902803 C86.9292766,87.1834621 87.0490553,86.9761136 87.1693617,86.7692955 C87.7044085,85.837553 88.2938043,84.6974015 88.7708085,83.4718712 C89.8335149,80.7360379 90.2107915,78.9749015 90.4514043,77.1729318 C90.4609021,77.0955076 90.4704,77.0191439 90.4788426,76.9433106 C87.4806809,79.8955076 85.0402553,82.0670985 83.0541447,83.5514167" id="Fill-22" fill="#DC2F34"></path>
                <path d="M81.839103,84.4475758 C72.3201243,104.053409 28.3011796,116.705909 23.4820647,90.4007576 C19.2022179,67.0430303 49.2656221,46.3665152 72.2963796,43.8963636 C73.3369243,43.825303 74.3410604,43.7860606 75.3309498,43.7606061 L75.341503,43.7298485 L88.9609243,35.2237879 C84.092737,34.5964394 78.5549498,34.5084091 72.2963796,35.2593182 C71.9782009,35.3043939 67.7020477,35.9073485 67.7020477,35.9073485 C57.3330094,37.7034848 46.3328902,42.8246212 36.727903,50.3289394 C23.2129583,60.8872727 14.6094689,74.4598485 13.710337,86.6324242 C13.6575711,87.3499242 13.6317157,88.0594697 13.6317157,88.7578788 C13.6317157,94.9841667 15.717554,100.453182 19.7267115,104.676515 C25.9947796,111.277727 36.0092306,113.775985 47.9269498,111.713106 C55.4561243,110.410682 63.3979285,107.331212 70.8928051,102.809848 C71.9945583,102.139015 73.7105072,101.048182 75.8987115,99.3384848 C79.8930945,96.2192424 83.2447881,92.6831818 85.7416732,89.0341667 L86.1099796,88.4821212 C86.2566689,88.2588636 86.402303,88.0356061 86.5426604,87.8118182 C86.6260306,87.6787121 86.7125668,87.5397727 86.8033243,87.3902273 C86.9289072,87.1834091 87.0492136,86.9760606 87.16952,86.7692424 C87.7040391,85.8380303 88.2934349,84.6973485 88.7709668,83.4718182 C89.8331455,80.7359848 90.2104221,78.9748485 90.4510349,77.1728788 C90.4615881,77.0959848 90.4700306,77.0190909 90.4790009,76.9437879 C87.4803115,79.8959848 85.039886,82.0670455 83.054303,83.5513636 C82.6553923,83.8504545 82.2490945,84.1490152 81.839103,84.4475758" id="Fill-24" fill="#B4292D"></path>
                <path d="M113.786199,53.2259848 L113.785671,53.2259848 L113.783561,53.2259848 C108.705365,53.2079545 97.2176885,54.3873485 84.2931949,63.7657576 C84.2931949,63.7657576 87.8427609,64.6985606 90.7944885,66.4453788 C90.7944885,66.4453788 96.3665736,61.167803 104.771135,58.0734848 L104.772191,58.0729545 C99.4074757,61.0039394 93.6443779,65.1747727 88.4817566,70.1638636 L88.378863,70.2699242 C86.0291949,72.6324242 83.6716119,74.7425 80.5837481,77.2232576 C78.7253311,78.7187121 76.3128715,80.0752273 72.7659438,81.6226515 C72.3227098,81.8151515 71.8747268,81.9922727 71.4241055,82.1609091 C65.6995268,84.3081061 59.4214332,84.6024242 57.0221651,83.4389394 C56.3346247,83.1059091 55.8776715,82.7039394 55.5795438,82.1715152 C55.2666417,81.6051515 55.2434247,80.9470455 55.5093651,80.1611364 C56.3446502,77.6708333 59.786046,74.7451515 64.0722247,72.8768939 C70.1640545,70.2227273 75.6981481,70.1898485 78.1702332,72.7962879 C78.7575183,73.4130303 79.054063,73.9491667 79.3479694,74.9201515 C79.3479694,74.9201515 79.5537566,75.8455303 79.69728,76.4829545 C79.7579609,76.4357576 79.8233906,76.3890909 79.8814332,76.3413636 C81.3541311,75.1582576 82.9893481,73.7672727 84.5496374,72.3815909 C85.9780119,71.1136364 87.3441226,69.8499242 88.4606502,68.7553788 C86.9341311,66.7052273 85.0583013,65.555 83.6969396,64.9398485 C82.6859438,64.4827273 81.5351183,64.1168182 80.3663523,63.8829545 L78.6651779,63.5414394 C73.9489566,63.0917424 68.2275438,64.1767424 62.1647353,66.8176515 C55.0007013,69.9411364 49.5541991,74.8416667 47.9527523,79.6059091 C47.1929226,81.8697727 47.3274757,84.0270455 48.3405821,85.8465152 C51.1698928,90.9231061 59.9485651,92.3909848 69.0929055,89.7378788 C70.544497,89.3168182 72.0045311,88.7960606 73.4524289,88.1644697 C76.7265566,86.7374242 79.6793396,84.6697727 82.3830672,82.6461364 C84.6731098,80.9332576 87.5894843,78.2812121 91.2952374,74.5388636 L91.5822843,74.2408333 C93.3742162,72.3900758 95.2036119,70.442803 95.2036119,70.442803 C100.117178,73.8224242 102.33968,80.5498485 102.33968,80.5498485 C105.824871,68.5522727 112.322471,58.9808333 115.160225,55.1711364 C115.77442,54.3375 116.72368,53.2599242 116.72368,53.2599242 C116.72368,53.2599242 115.479986,53.2259848 113.786199,53.2259848" id="Fill-26" fill="#DC2F34"></path>
                <path d="M92.7895694,64.7766742 L92.7906247,64.7750833 C92.7906247,64.7750833 88.7735523,62.954553 84.2926672,63.7659167 C84.2926672,63.7659167 87.8432885,64.6981894 90.7944885,66.4455379 C90.7944885,66.4455379 91.5026077,65.7762955 92.7895694,64.7766742" id="Fill-28" fill="#B4292D"></path>
                <path d="M95.7118009,67.0457348 C95.7118009,67.0457348 89.3677498,73.4533864 80.3616562,81.1565682 C77.8072562,83.2152045 74.1067796,84.9535379 70.2073753,86.1143712 C61.6745923,88.6545227 52.1951881,88.4249015 51.7129072,82.7092955 C51.0105923,74.3814167 63.0180136,68.3836894 72.0056391,67.1136136 C79.7268817,66.02225 83.6078179,70.9657348 84.5496902,72.3821742 C85.977537,71.1136894 87.3441753,69.8505076 88.460703,68.7554318 C86.9341838,66.7058106 85.058354,65.555053 83.6964647,64.9399015 C82.6854689,64.4833106 81.5351711,64.1168712 80.3664051,63.8830076 L78.6652306,63.5420227 C73.949537,63.0917955 68.2275966,64.1767955 62.1647881,66.8177045 C55.000754,69.9417197 49.5537243,74.8417197 47.9528051,79.6059621 C47.193503,81.8703561 47.3270009,84.0270985 48.3406349,85.8465682 C51.1694179,90.9231591 59.9486179,92.3899773 69.0929583,89.7379318 C70.5445498,89.3174015 72.0045838,88.7961136 73.451954,88.1645227 C76.7266094,86.7374773 79.6793923,84.6703561 82.38312,82.6467197 C84.6731626,80.9338409 87.5890094,78.2812652 91.2958179,74.539447 L91.5828647,74.2408864 C93.3742689,72.3906591 95.2036647,70.4433864 95.2036647,70.4433864 C100.117231,73.8224773 102.339733,80.5499015 102.339733,80.5499015 C102.12392,72.2936136 95.7118009,67.0457348 95.7118009,67.0457348" id="Fill-30" fill="#B4292D"></path>
                <path d="M92.7895694,64.7766742 L92.7906247,64.7750833 C92.7906247,64.7750833 88.7735523,62.954553 84.2926672,63.7659167 C84.2926672,63.7659167 87.8432885,64.6981894 90.7944885,66.4455379 C90.7944885,66.4455379 91.5026077,65.7762955 92.7895694,64.7766742" id="Fill-32" fill="#B4292D"></path>
                <path d="M92.7895694,64.7766742 L92.7906247,64.7750833 C92.7906247,64.7750833 88.7735523,62.954553 84.2926672,63.7659167 C84.2926672,63.7659167 87.8432885,64.6981894 90.7944885,66.4455379 C90.7944885,66.4455379 91.5026077,65.7762955 92.7895694,64.7766742" id="Fill-34" fill="#B4292D"></path>
                <polygon id="Fill-36" fill="#000000" points="3.87893106 113.733402 54.6102332 135.248856 105.322012 113.656508 105.322012 4.42893182 3.87893106 4.42893182"></polygon>
                <g id="Group-40" transform="translate(0.000000, 0.011667)">
                    <mask id="mask-4" fill="white">
                        <use xlink:href="#path-3"></use>
                    </mask>
                    <g id="Clip-39"></g>
                    <path d="M109.200626,0.518583333 L105.321273,0.518583333 L3.87872,0.518583333 L-0.000105531915,0.518583333 L-0.000105531915,4.41737121 L-0.000105531915,113.721841 L-0.000105531915,116.308129 L2.37066894,117.314114 L53.1019711,138.829038 L54.6126604,139.469644 L56.1228221,138.826917 L106.835129,117.235098 L109.200626,116.228053 L109.200626,113.646008 L109.200626,4.41737121 L109.200626,0.518583333 Z M105.321273,4.41737121 L105.321273,113.646008 L54.6100221,135.237295 L3.87872,113.721841 L3.87872,4.41737121 L105.321273,4.41737121 Z" id="Fill-38" fill="#000000" mask="url(#mask-4)"></path>
                </g>
                <polygon id="Fill-41" fill="#000000" points="3.87893106 113.733402 54.6102332 135.248856 105.322012 113.656508 105.322012 4.42893182 3.87893106 4.42893182"></polygon>
                <path d="M106.53394,3.21077273 L105.321379,3.21077273 L3.87829787,3.21077273 L2.66626383,3.21077273 L2.66626383,4.42940909 L2.66626383,113.733348 L2.66626383,114.54153 L3.40762553,114.856 L54.1384,136.371455 L54.611183,136.570848 L55.082383,136.370924 L105.794689,114.779106 L106.53394,114.464636 L106.53394,113.657515 L106.53394,4.42940909 L106.53394,3.21077273 Z M105.321379,4.42940909 L105.321379,113.657515 L54.6101277,135.248273 L3.87829787,113.733348 L3.87829787,4.42940909 L105.321379,4.42940909 Z" id="Fill-43" fill="#FFFFFF"></path>
                <polygon id="Fill-45" fill="#000000" points="3.87893106 113.733402 54.6102332 135.248856 105.322012 113.656508 105.322012 4.42893182 3.87893106 4.42893182"></polygon>
                <path d="M105.321484,4.42909091 L3.8784034,4.42909091 L3.8784034,113.733561 L54.6102332,135.249015 L105.321484,113.657727 L105.321484,4.42909091 Z M102.896889,6.86583333 L102.896889,112.043485 L54.6081226,132.602803 L6.30352681,112.117197 L6.30352681,6.86583333 L102.896889,6.86583333 Z" id="Fill-47" fill="#FAB31E"></path>
                <path d="M21.6663353,16.2140682 C21.1471183,15.5713409 20.6031013,15.0373258 20.0369226,14.612553 C18.8354417,13.9576288 17.6888374,13.6304318 16.5971098,13.6304318 L10.9706757,13.6304318 L10.9131609,13.6304318 C10.9131609,13.6304318 12.7583864,16.0263409 12.7583864,16.1042955 L12.7583864,19.7978561 L12.7583864,23.3466439 L12.7583864,25.7483864 L17.1395438,25.7483864 C18.0988289,25.7483864 19.1251268,25.3845985 20.2173821,24.6564924 C21.9074757,23.2983864 22.7527864,21.6846742 22.7527864,19.816947 L22.7527864,19.4165682 C22.7527864,18.3914924 22.3902843,17.3239924 21.6663353,16.2140682 M19.4211438,22.5092955 C18.6971949,23.2374015 17.7795949,23.6011894 16.6688715,23.6011894 L14.9307609,23.6011894 L14.9307609,15.7770985 L16.3786587,15.7770985 C16.8435268,15.7770985 17.326863,15.837553 17.8276119,15.9595227 C19.6865566,16.7358864 20.6162928,17.996947 20.6162928,19.7437652 C20.6162928,20.720053 20.2173821,21.64225 19.4211438,22.5092955" id="Fill-49" fill="#FFFFFF"></path>
                <path d="M31.7361379,20.7263106 L31.7361379,20.6897197 C31.8569719,20.6897197 32.0743677,20.6287348 32.3872698,20.5078258 C33.8604953,19.7500227 34.5971081,18.6703258 34.5971081,17.2692652 L34.5971081,17.1600227 C34.5971081,16.565553 34.4398655,15.9832803 34.1259081,15.4132045 C33.3291421,14.2242652 32.3519166,13.6303258 31.1931762,13.6303258 L22.7527336,13.6303258 L24.6027081,16.1041894 L24.6027081,21.6437348 L24.6027081,23.3465379 L24.6027081,25.7482803 L26.7750826,25.7482803 L26.7750826,20.7629015 L29.0208017,20.7629015 L32.9676953,25.7482803 L35.6672017,25.7482803 L31.7361379,20.7263106 Z M26.7750826,18.6157045 L26.7750826,15.7769924 L30.757857,15.7769924 L31.4464528,15.8496439 C32.0981123,16.1471439 32.424206,16.5475227 32.424206,17.0507803 L32.424206,17.3419167 L32.3872698,17.5964621 C32.1587932,18.2757803 31.6031677,18.6157045 30.7225038,18.6157045 L26.7750826,18.6157045 Z" id="Fill-51" fill="#FFFFFF"></path>
                <path d="M40.6074145,21.1991288 L41.8933209,17.7754924 L43.1781719,21.1991288 L40.6074145,21.1991288 Z M47.0527762,25.2750379 C44.1321804,17.5596591 42.6473464,13.7027652 42.5993294,13.7027652 L38.4223762,13.7027652 L40.2085038,16.1045076 L36.5365209,25.7480682 L36.6241123,25.7480682 L38.7975421,25.7480682 L39.7388868,23.3829167 L44.0477549,23.3829167 L44.9885719,25.7480682 L47.1973549,25.7480682 L47.2342911,25.7114773 L47.0527762,25.2750379 Z" id="Fill-53" fill="#FFFFFF"></path>
                <path d="M53.8185328,18.6157045 L52.6239115,20.7629015 L55.4479455,20.7629015 L55.4479455,23.6010833 L53.7462434,23.6010833 C52.9494774,23.6010833 52.2608817,23.4313864 51.6825668,23.0914621 C50.4024647,22.1761591 49.7624136,21.0466136 49.7624136,19.7436591 C49.7624136,19.1104773 49.90752,18.6517652 49.90752,18.6517652 C50.6135285,16.73525 51.9775285,15.7769924 53.9989923,15.7769924 L56.2447115,15.7769924 L56.6045753,16.7596439 L56.6024647,16.7601742 L56.749154,17.1531288 L56.750737,17.1594924 C56.750737,17.1594924 59.2360136,13.7512348 59.2360136,13.6297955 L53.7098349,13.6297955 C52.316286,13.6297955 51.0119115,14.1033561 49.7993498,15.0488864 C48.3509243,16.3894924 47.6264477,17.8451742 47.6264477,19.4159318 L47.6264477,19.78025 C47.6264477,21.4056288 48.2670264,22.8613106 49.5460732,24.1472955 C50.7644391,25.2147955 51.9954689,25.7482803 53.2391626,25.7482803 L57.5485583,25.7482803 L57.6208477,25.7482803 L57.6208477,18.6883561 L57.5485583,18.6157045 L53.8185328,18.6157045 Z" id="Fill-55" fill="#FFFFFF"></path>
                <path d="M65.9320136,13.5936288 C62.5824306,13.5936288 59.8670945,16.3225682 59.8670945,19.6889318 C59.8670945,23.0558258 62.5824306,25.7847652 65.9320136,25.7847652 C69.2815966,25.7847652 71.9969328,23.0558258 71.9969328,19.6889318 C71.9969328,16.3225682 69.2815966,13.5936288 65.9320136,13.5936288 M65.9320136,23.6009773 C63.7823285,23.6009773 62.0394689,21.8499167 62.0394689,19.6889318 C62.0394689,17.5284773 63.7823285,15.7774167 65.9320136,15.7774167 C68.0816987,15.7774167 69.825086,17.5284773 69.825086,19.6889318 C69.825086,21.8499167 68.0816987,23.6009773 65.9320136,23.6009773" id="Fill-57" fill="#FFFFFF"></path>
                <path d="M80.4853923,13.6301136 L82.3089838,15.9353409 L82.3089838,15.9348106 L82.3089838,21.563447 L82.273103,21.563447 C80.8964391,19.743447 78.821154,17.0993561 76.045137,13.6301136 L72.6280136,13.6301136 L74.4510774,15.9353409 L74.4510774,21.9558712 L74.4510774,23.3463258 L74.4510774,25.7480682 L76.6239796,25.7480682 L76.6239796,17.8513258 L82.8519455,25.7480682 L84.4460051,25.7480682 L84.4460051,13.6301136 L80.4853923,13.6301136 Z" id="Fill-59" fill="#FFFFFF"></path>
                <path d="M92.9024357,18.6157045 L89.7924102,18.6157045 C89.0141123,18.6157045 88.3803932,17.9793409 88.3803932,17.1960833 C88.3803932,16.4133561 89.0141123,15.7764621 89.7924102,15.7764621 L93.2997634,15.7764621 L93.8205634,17.1600227 L96.3047847,13.6303258 L94.0991677,13.6303258 L89.7924102,13.6303258 C87.8363762,13.6303258 86.2449549,15.2297197 86.2449549,17.1960833 C86.2449549,19.162447 87.8363762,20.7623712 89.7924102,20.7623712 L92.9024357,20.7623712 C93.6807336,20.7623712 94.3144528,21.3987348 94.3144528,22.1819924 C94.3144528,22.9647197 93.6807336,23.6016136 92.9024357,23.6016136 L89.2220102,23.6016136 L88.7006826,22.2185833 L86.2164613,25.74775 L88.2590315,25.74775 L88.4231336,25.74775 L92.9024357,25.74775 C94.8579421,25.74775 96.4498911,24.1483561 96.4498911,22.1819924 C96.4498911,20.2156288 94.8579421,18.6157045 92.9024357,18.6157045" id="Fill-61" fill="#FFFFFF"></path>
                <g id="Group-65" transform="translate(10.025532, 31.299545)">
                    <mask id="mask-6" fill="white">
                        <use xlink:href="#path-5"></use>
                    </mask>
                    <g id="Clip-64"></g>
                    <path d="M66.1442911,44.8558409 C64.8678826,45.6104621 63.3223677,46.37675 61.3985209,47.2156894 C61.0576528,47.3641742 60.671406,47.5190227 60.2197294,47.6881894 C57.318657,48.7758409 53.9326655,49.4254621 51.1613974,49.4254621 C50.20264,49.4254621 49.5040187,49.3453864 49.0486485,49.2557652 C49.9171762,48.0021288 52.084274,46.1248561 55.387423,44.684553 C57.9539591,43.5672045 60.4909464,42.9515227 62.5319336,42.9515227 C64.0172953,42.9515227 65.1739251,43.2728864 65.705806,43.833947 C65.8667421,44.0031136 65.9279506,44.0678106 66.0640868,44.4952348 L66.1442911,44.8558409 Z M106.78938,18.5740227 C106.737142,18.5724318 105.480257,18.5390227 103.761142,18.5390227 L103.647695,18.5390227 C97.7152187,18.5390227 85.7932783,19.9793258 72.4477123,29.6101591 C71.9707081,29.4759924 71.4868443,29.3593258 71.0008698,29.26175 L69.2996953,28.9202348 L69.1308443,28.8868258 L68.9588272,28.8698561 C68.1652272,28.794553 67.3399677,28.7563712 66.5057379,28.7563712 C61.7177549,28.7558409 56.2870826,30.019553 50.7983677,32.4106894 C42.6644953,35.9568258 36.6592017,41.49425 34.7348272,47.2225833 C33.66104,50.4187197 33.8821294,53.5231136 35.373823,56.2011439 C37.2317123,59.5351591 40.8224357,61.7878864 45.5307421,62.6862197 C44.64744,62.9227348 43.7931591,63.1178864 42.9985038,63.2552348 C41.5484953,63.5065985 40.1465038,63.6338712 38.8284102,63.6338712 C34.8598826,63.6338712 31.6791506,62.4915985 29.6276102,60.3311439 C28.0156102,58.6325833 27.1993209,56.4434924 27.1993209,53.8248561 C27.1993209,53.5225833 27.211457,53.1985682 27.2357294,52.8612955 C27.7032357,46.4997803 32.497023,39.1741742 40.0599677,33.2655379 C45.5972272,28.9409167 51.8689889,26.001447 57.7212613,24.9890985 C58.8836953,24.7881136 60.0292443,24.664553 61.1267762,24.6237197 L62.3641379,24.5812955 L62.3894655,24.5812955 L62.4876102,24.5791742 L64.8520528,24.5208409 L65.6013294,22.2654621 L68.1277634,14.6619773 L80.7140272,6.80182576 L88.7613634,1.77561364 L79.3648017,0.564401515 C76.6536868,0.214931818 73.8285974,0.0378106061 70.9686826,0.0378106061 C68.0238145,0.0378106061 64.9628613,0.225537879 61.8718315,0.59675 L61.8364783,0.600462121 L61.8021804,0.605234848 L57.2073209,1.25379545 L57.1561379,1.26068939 L57.1038996,1.27023485 C46.1998145,3.15864394 34.6683421,8.51576515 24.6333123,16.3557652 C10.3796443,27.4905379 1.2917634,41.9678106 0.323508085,55.0827348 C0.264937872,55.884553 0.235388936,56.6831894 0.235388936,57.4584924 C0.235388936,64.55925 2.66578894,70.8725076 7.26275915,75.7147045 C12.7240357,81.4663712 20.6009379,84.5060682 30.0423506,84.5060682 C32.7455506,84.5060682 35.5822485,84.252053 38.4743506,83.751447 C46.4056017,82.3800833 54.7489549,79.1510682 62.6015847,74.4149318 C63.7867081,73.6921288 65.6134655,72.5323561 67.9420272,70.713947 C72.1353379,67.4382652 75.7841038,63.61425 78.4931081,59.653947 L78.5047166,59.6375076 L78.5163251,59.6200076 L78.8851591,59.0679621 C79.0561209,58.8086439 79.2149464,58.5636439 79.3684953,58.3186439 C79.4581974,58.1765227 79.5537038,58.0216742 79.6555421,57.8546288 C79.792206,57.62925 79.9246485,57.4012197 80.0560357,57.1737197 C80.8021464,55.8760682 81.4147591,54.6118258 81.8843762,53.4059167 C83.1396783,50.17425 83.530674,48.09175 83.7660102,46.3226591 C83.7792017,46.2250833 83.7908102,46.1275076 83.8024187,46.0299318 L83.8736528,45.4062955 L83.9807677,45.2944015 C84.453023,44.8065227 84.9305549,44.3096288 85.3769549,43.8429621 C85.5975166,44.0943258 85.81544,44.358947 86.0301974,44.6378864 C86.1193719,44.754553 86.2074911,44.8712197 86.2934996,44.988947 C87.6902145,46.9033409 91.5416017,54.3074318 92.8744698,56.8963712 C94.3487506,52.5203106 96.0805294,47.8918258 97.693057,44.0036439 C98.2587081,42.5903864 98.8554911,41.2306894 99.4670485,39.9298561 C99.9519677,38.8793258 100.409449,37.9486439 100.822606,37.1807652 L100.822606,37.1828864 C102.667831,33.6165985 104.537329,30.6357652 106.019525,28.4556894 C106.021636,28.4525076 106.029023,28.4408409 106.029023,28.4408409 C106.037993,28.4265227 106.048546,28.4116742 106.058572,28.3978864 C106.749806,27.3818258 107.356614,26.5418258 107.832563,25.9028106 C108.000887,25.6737197 108.208785,25.41175 108.414044,25.1603864 C110.412819,22.5406894 112.558283,19.9581136 113.567168,18.7580379 L106.78938,18.5740227 Z" id="Fill-63" fill="#FAB31E" mask="url(#mask-6)"></path>
                </g>
                <path d="M78.708657,77.2118561 C77.096657,78.3185985 75.0620017,79.3903409 72.3181719,80.5867045 C71.9403677,80.7516288 71.51824,80.9202652 71.0306826,81.1032197 C67.8452017,82.2979924 64.2571166,82.9831439 61.1871932,82.9831439 C59.5857464,82.9831439 58.2454911,82.778447 57.5104613,82.4220833 C56.8999591,82.1267045 56.6820357,81.8376894 56.5596187,81.6186742 C56.4656953,81.448447 56.362274,81.1467045 56.5728102,80.5251894 C57.3020357,78.3520076 60.5687762,75.6347348 64.5193634,73.9128409 C67.40144,72.656553 70.182206,71.9920833 72.558257,71.9920833 C74.715857,71.9920833 76.3753464,72.5398864 77.3573209,73.5750379 C77.8095251,74.0496591 78.0226996,74.4357197 78.2612017,75.2099621 L78.6010145,76.7308712 L78.708657,77.2118561 Z M87.5210996,66.0823864 C88.311006,66.4127652 89.1515677,66.8073106 89.9525549,67.2607197 C89.7108868,67.4770833 89.4713294,67.6939773 89.2328272,67.9119318 C88.6888102,67.2045076 88.1073294,66.5994318 87.5210996,66.0823864 Z M116.755023,52.1311742 C116.741831,52.1306439 115.475449,52.0972348 113.786938,52.0972348 L113.673491,52.0967045 C107.989542,52.0967045 96.5293038,53.4935227 83.6359421,62.8507197 L82.878223,63.4006439 C82.1416102,63.1439773 81.3664783,62.9318561 80.5865974,62.775947 L78.885423,62.4344318 L78.8294911,62.4232955 L78.7709209,62.4174621 C78.0485549,62.349053 77.2945294,62.3135227 76.5304783,62.3135227 C72.0485379,62.3129924 66.9265464,63.5130682 61.7180187,65.7817045 C54.2701038,69.02875 48.5877379,74.1875379 46.8881464,79.2445076 C46.0243677,81.8180682 46.1863591,84.2919318 47.359874,86.3977652 C49.4034996,90.0632197 54.1540187,92.1653409 60.3941209,92.1653409 C62.6224272,92.1653409 64.9235506,91.8975379 67.2605549,91.3725379 C67.2188698,91.4006439 67.1787677,91.4271591 67.1354996,91.4563258 C63.7315677,93.7270833 57.82864,96.0158712 53.4042145,96.7800379 C51.830206,97.0531439 50.2989379,97.1920833 48.8547336,97.1920833 C44.2567081,97.1920833 40.5124357,95.8074621 38.0271591,93.1893561 C36.0315506,91.0861742 34.9772868,88.2978409 34.9772868,85.1239773 C34.9772868,84.7670833 34.9920613,84.3873864 35.0205549,83.9954924 C35.5344953,77.0071591 40.6496272,69.075947 48.7064613,62.7817803 C54.5297123,58.2339015 61.1555336,55.1374621 67.3660868,54.0625379 C68.6261379,53.8445833 69.8724698,53.710947 71.0692017,53.6664015 L72.3361123,53.6229167 L72.383074,53.6223864 L72.457474,53.6207955 L73.2457974,53.6022348 L73.4953804,52.8497348 L76.2787847,44.4741288 L89.5546996,36.1823106 L92.2367932,34.5070833 L89.1035506,34.1035227 C86.4874145,33.7667803 83.7588868,33.5949621 80.993423,33.5949621 C78.1372017,33.5949621 75.1664783,33.7779167 72.1640953,34.1379924 L67.5460187,34.7892045 L67.528606,34.7918561 L67.5111932,34.7950379 C56.9632783,36.6214015 45.7863932,41.821553 36.0378826,49.4377652 C22.2781038,60.1880682 13.5120953,74.0607955 12.5897464,86.5489015 C12.5359251,87.2945076 12.5079591,88.0374621 12.5079591,88.7581439 C12.5079591,95.2670833 14.7225464,101.041553 18.914274,105.456326 C23.9402315,110.74928 31.2551762,113.547689 40.0681464,113.547689 C42.6431251,113.547689 45.3521294,113.304811 48.1175932,112.825417 C55.7786826,111.50072 63.85504,108.371932 71.4707506,103.778447 C72.5999421,103.090114 74.3512443,101.977008 76.5885209,100.229129 C80.6018996,97.0950379 84.0860357,93.4449621 86.6668187,89.6739773 L87.0435677,89.1107955 C87.1986996,88.8753409 87.3480272,88.6451894 87.4931336,88.4139773 C87.5796698,88.2782197 87.6683166,88.133447 87.7617123,87.9785985 C87.8920443,87.7648864 88.0165719,87.5511742 88.1400443,87.3374621 C88.8260017,86.14375 89.3890145,84.9829167 89.8169464,83.8830682 C90.9213379,81.0422348 91.3139166,79.2052652 91.5640272,77.3226894 C91.5761634,77.2389015 91.5856613,77.1551136 91.5962145,77.0723864 L91.7555677,75.6713258 C91.8690145,75.5578409 91.976657,75.4523106 92.0916868,75.3351136 L92.3903421,75.0248864 C93.5000102,73.8799621 94.6344783,72.6857197 95.3330996,71.9475379 C96.2058485,72.656553 97.0437719,73.5304924 97.832623,74.5555682 C97.9344613,74.6876136 98.0336613,74.8196591 98.1307506,74.9522348 C99.967006,77.4679924 102.643823,83.530947 102.643823,83.530947 L103.4179,80.8661742 C106.878819,68.9550379 113.411772,59.4032197 116.05904,55.8491288 C116.640521,55.0589773 117.555483,54.0185227 117.565508,54.008447 L119.161151,52.1964015 L116.755023,52.1311742 Z" id="Fill-66" fill="#FFFFFF"></path>
                <path d="M94.7476613,70.1439242 L94.7524102,70.1471061 L94.7476613,70.1439242 Z" id="Fill-68" fill="#DC2F34"></path>
                <path d="M83.0541447,83.5514167 C82.6547064,83.8499773 82.2494638,84.1490682 81.8389447,84.4476288 C79.4169872,86.2108864 76.7950468,87.9380833 73.8992511,89.2002045 C72.8671489,89.6504318 71.8054979,90.0571742 70.7438468,90.4098258 L70.5744681,90.4665682 C69.9418043,90.9146742 69.0315915,91.5457348 67.7578213,92.3963409 C64.2631319,94.7270227 58.2219574,97.0932348 53.5949106,97.8929318 C46.5875915,99.1073258 40.769617,97.71475 37.2147745,93.9686894 C35.0038809,91.6390682 33.8541106,88.6014924 33.8541106,85.1242955 C33.8541106,84.7260379 33.8704681,84.321947 33.900017,83.912553 C34.4361191,76.6102803 39.7132426,68.3773258 48.0175489,61.8901288 C53.9811574,57.2314167 60.7853277,54.0559621 67.1747574,52.9502803 C68.4896851,52.7227803 69.7850894,52.5843712 71.0277277,52.5382348 C71.0277277,52.5382348 72.0255319,52.5037652 72.2962213,52.49475 C72.3416,52.4936894 72.3848681,52.4936894 72.4297191,52.4926288 L75.3313191,43.7606591 L75.3413447,43.7299015 L88.960766,35.2238409 C84.0931064,34.5959621 78.5553191,34.5084621 72.2962213,35.2588409 C71.9780426,35.304447 67.7018894,35.9074015 67.7018894,35.9074015 C57.3333787,37.7035379 46.3327319,42.8246742 36.727217,50.3289924 C23.2128,60.8867955 14.608783,74.4599015 13.7107064,86.631947 C13.6574128,87.3499773 13.6320851,88.0595227 13.6320851,88.7579318 C13.6320851,94.9836894 15.7179234,100.453765 19.7265532,104.676568 C25.9946213,111.27778 36.0090723,113.776038 47.9273191,111.713159 C55.455966,110.410735 63.3977702,107.331265 70.8926468,102.809902 C71.9944,102.138538 73.7103489,101.048235 75.8985532,99.3380076 C79.8929362,96.2192955 83.2446298,92.6832348 85.7420426,89.0342197 L86.1098213,88.4821742 C86.2565106,88.2589167 86.4026723,88.0361894 86.5425021,87.8113409 C86.6269277,87.6787652 86.7129362,87.5398258 86.803166,87.3902803 C86.9292766,87.1834621 87.0490553,86.9761136 87.1693617,86.7692955 C87.7044085,85.837553 88.2938043,84.6974015 88.7708085,83.4718712 C89.8335149,80.7360379 90.2107915,78.9749015 90.4514043,77.1729318 C90.4609021,77.0955076 90.4704,77.0191439 90.4788426,76.9433106 C87.4806809,79.8955076 85.0402553,82.0670985 83.0541447,83.5514167" id="Fill-70" fill="#DC2F34"></path>
                <path d="M81.839103,84.4475758 C72.3201243,104.053409 28.3011796,116.705909 23.4820647,90.4007576 C19.2022179,67.0430303 49.2656221,46.3665152 72.2963796,43.8963636 C73.3369243,43.825303 74.3410604,43.7860606 75.3309498,43.7606061 L75.341503,43.7298485 L88.9609243,35.2237879 C84.092737,34.5964394 78.5549498,34.5084091 72.2963796,35.2593182 C71.9782009,35.3043939 67.7020477,35.9073485 67.7020477,35.9073485 C57.3330094,37.7034848 46.3328902,42.8246212 36.727903,50.3289394 C23.2129583,60.8872727 14.6094689,74.4598485 13.710337,86.6324242 C13.6575711,87.3499242 13.6317157,88.0594697 13.6317157,88.7578788 C13.6317157,94.9841667 15.717554,100.453182 19.7267115,104.676515 C25.9947796,111.277727 36.0092306,113.775985 47.9269498,111.713106 C55.4561243,110.410682 63.3979285,107.331212 70.8928051,102.809848 C71.9945583,102.139015 73.7105072,101.048182 75.8987115,99.3384848 C79.8930945,96.2192424 83.2447881,92.6831818 85.7416732,89.0341667 L86.1099796,88.4821212 C86.2566689,88.2588636 86.402303,88.0356061 86.5426604,87.8118182 C86.6260306,87.6787121 86.7125668,87.5397727 86.8033243,87.3902273 C86.9289072,87.1834091 87.0492136,86.9760606 87.16952,86.7692424 C87.7040391,85.8380303 88.2934349,84.6973485 88.7709668,83.4718182 C89.8331455,80.7359848 90.2104221,78.9748485 90.4510349,77.1728788 C90.4615881,77.0959848 90.4700306,77.0190909 90.4790009,76.9437879 C87.4803115,79.8959848 85.039886,82.0670455 83.054303,83.5513636 C82.6553923,83.8504545 82.2490945,84.1490152 81.839103,84.4475758" id="Fill-72" fill="#B4292D"></path>
                <path d="M113.786199,53.2259848 L113.785671,53.2259848 L113.783561,53.2259848 C108.705365,53.2079545 97.2176885,54.3873485 84.2931949,63.7657576 C84.2931949,63.7657576 87.8427609,64.6985606 90.7944885,66.4453788 C90.7944885,66.4453788 96.3665736,61.167803 104.771135,58.0734848 L104.772191,58.0729545 C99.4074757,61.0039394 93.6443779,65.1747727 88.4817566,70.1638636 L88.378863,70.2699242 C86.0291949,72.6324242 83.6716119,74.7425 80.5837481,77.2232576 C78.7253311,78.7187121 76.3128715,80.0752273 72.7659438,81.6226515 C72.3227098,81.8151515 71.8747268,81.9922727 71.4241055,82.1609091 C65.6995268,84.3081061 59.4214332,84.6024242 57.0221651,83.4389394 C56.3346247,83.1059091 55.8776715,82.7039394 55.5795438,82.1715152 C55.2666417,81.6051515 55.2434247,80.9470455 55.5093651,80.1611364 C56.3446502,77.6708333 59.786046,74.7451515 64.0722247,72.8768939 C70.1640545,70.2227273 75.6981481,70.1898485 78.1702332,72.7962879 C78.7575183,73.4130303 79.054063,73.9491667 79.3479694,74.9201515 C79.3479694,74.9201515 79.5537566,75.8455303 79.69728,76.4829545 C79.7579609,76.4357576 79.8233906,76.3890909 79.8814332,76.3413636 C81.3541311,75.1582576 82.9893481,73.7672727 84.5496374,72.3815909 C85.9780119,71.1136364 87.3441226,69.8499242 88.4606502,68.7553788 C86.9341311,66.7052273 85.0583013,65.555 83.6969396,64.9398485 C82.6859438,64.4827273 81.5351183,64.1168182 80.3663523,63.8829545 L78.6651779,63.5414394 C73.9489566,63.0917424 68.2275438,64.1767424 62.1647353,66.8176515 C55.0007013,69.9411364 49.5541991,74.8416667 47.9527523,79.6059091 C47.1929226,81.8697727 47.3274757,84.0270455 48.3405821,85.8465152 C51.1698928,90.9231061 59.9485651,92.3909848 69.0929055,89.7378788 C70.544497,89.3168182 72.0045311,88.7960606 73.4524289,88.1644697 C76.7265566,86.7374242 79.6793396,84.6697727 82.3830672,82.6461364 C84.6731098,80.9332576 87.5894843,78.2812121 91.2952374,74.5388636 L91.5822843,74.2408333 C93.3742162,72.3900758 95.2036119,70.442803 95.2036119,70.442803 C100.117178,73.8224242 102.33968,80.5498485 102.33968,80.5498485 C105.824871,68.5522727 112.322471,58.9808333 115.160225,55.1711364 C115.77442,54.3375 116.72368,53.2599242 116.72368,53.2599242 C116.72368,53.2599242 115.479986,53.2259848 113.786199,53.2259848" id="Fill-74" fill="#DC2F34"></path>
                <path d="M92.7895694,64.7766742 L92.7906247,64.7750833 C92.7906247,64.7750833 88.7735523,62.954553 84.2926672,63.7659167 C84.2926672,63.7659167 87.8432885,64.6981894 90.7944885,66.4455379 C90.7944885,66.4455379 91.5026077,65.7762955 92.7895694,64.7766742" id="Fill-76" fill="#B4292D"></path>
                <path d="M95.7118009,67.0457348 C95.7118009,67.0457348 89.3677498,73.4533864 80.3616562,81.1565682 C77.8072562,83.2152045 74.1067796,84.9535379 70.2073753,86.1143712 C61.6745923,88.6545227 52.1951881,88.4249015 51.7129072,82.7092955 C51.0105923,74.3814167 63.0180136,68.3836894 72.0056391,67.1136136 C79.7268817,66.02225 83.6078179,70.9657348 84.5496902,72.3821742 C85.977537,71.1136894 87.3441753,69.8505076 88.460703,68.7554318 C86.9341838,66.7058106 85.058354,65.555053 83.6964647,64.9399015 C82.6854689,64.4833106 81.5351711,64.1168712 80.3664051,63.8830076 L78.6652306,63.5420227 C73.949537,63.0917955 68.2275966,64.1767955 62.1647881,66.8177045 C55.000754,69.9417197 49.5537243,74.8417197 47.9528051,79.6059621 C47.193503,81.8703561 47.3270009,84.0270985 48.3406349,85.8465682 C51.1694179,90.9231591 59.9486179,92.3899773 69.0929583,89.7379318 C70.5445498,89.3174015 72.0045838,88.7961136 73.451954,88.1645227 C76.7266094,86.7374773 79.6793923,84.6703561 82.38312,82.6467197 C84.6731626,80.9338409 87.5890094,78.2812652 91.2958179,74.539447 L91.5828647,74.2408864 C93.3742689,72.3906591 95.2036647,70.4433864 95.2036647,70.4433864 C100.117231,73.8224773 102.339733,80.5499015 102.339733,80.5499015 C102.12392,72.2936136 95.7118009,67.0457348 95.7118009,67.0457348" id="Fill-78" fill="#B4292D"></path>
                <path d="M92.7895694,64.7766742 L92.7906247,64.7750833 C92.7906247,64.7750833 88.7735523,62.954553 84.2926672,63.7659167 C84.2926672,63.7659167 87.8432885,64.6981894 90.7944885,66.4455379 C90.7944885,66.4455379 91.5026077,65.7762955 92.7895694,64.7766742" id="Fill-80" fill="#B4292D"></path>
                <path d="M92.7895694,64.7766742 L92.7906247,64.7750833 C92.7906247,64.7750833 88.7735523,62.954553 84.2926672,63.7659167 C84.2926672,63.7659167 87.8432885,64.6981894 90.7944885,66.4455379 C90.7944885,66.4455379 91.5026077,65.7762955 92.7895694,64.7766742" id="Fill-82" fill="#B4292D"></path>
                <polygon id="Fill-84" fill="#000000" points="3.87893106 113.733402 54.6102332 135.248856 105.322012 113.656508 105.322012 4.42893182 3.87893106 4.42893182"></polygon>
                <g id="Group-88" transform="translate(0.000000, 0.011667)">
                    <mask id="mask-8" fill="white">
                        <use xlink:href="#path-7"></use>
                    </mask>
                    <g id="Clip-87"></g>
                    <path d="M109.200626,0.518583333 L105.321273,0.518583333 L3.87872,0.518583333 L-0.000105531915,0.518583333 L-0.000105531915,4.41737121 L-0.000105531915,113.721841 L-0.000105531915,116.308129 L2.37066894,117.314114 L53.1019711,138.829038 L54.6126604,139.469644 L56.1228221,138.826917 L106.835129,117.235098 L109.200626,116.228053 L109.200626,113.646008 L109.200626,4.41737121 L109.200626,0.518583333 Z M105.321273,4.41737121 L105.321273,113.646008 L54.6100221,135.237295 L3.87872,113.721841 L3.87872,4.41737121 L105.321273,4.41737121 Z" id="Fill-86" fill="#000000" mask="url(#mask-8)"></path>
                </g>
                <polygon id="Fill-89" fill="#000000" points="3.87893106 113.733402 54.6102332 135.248856 105.322012 113.656508 105.322012 4.42893182 3.87893106 4.42893182"></polygon>
                <path d="M106.53394,3.21077273 L105.321379,3.21077273 L3.87829787,3.21077273 L2.66626383,3.21077273 L2.66626383,4.42940909 L2.66626383,113.733348 L2.66626383,114.54153 L3.40762553,114.856 L54.1384,136.371455 L54.611183,136.570848 L55.082383,136.370924 L105.794689,114.779106 L106.53394,114.464636 L106.53394,113.657515 L106.53394,4.42940909 L106.53394,3.21077273 Z M105.321379,4.42940909 L105.321379,113.657515 L54.6101277,135.248273 L3.87829787,113.733348 L3.87829787,4.42940909 L105.321379,4.42940909 Z" id="Fill-91" fill="#FFFFFF"></path>
                <polygon id="Fill-93" fill="#000000" points="3.87893106 113.733402 54.6102332 135.248856 105.322012 113.656508 105.322012 4.42893182 3.87893106 4.42893182"></polygon>
                <path d="M105.321484,4.42909091 L3.8784034,4.42909091 L3.8784034,113.733561 L54.6102332,135.249015 L105.321484,113.657727 L105.321484,4.42909091 Z M102.896889,6.86583333 L102.896889,112.043485 L54.6081226,132.602803 L6.30352681,112.117197 L6.30352681,6.86583333 L102.896889,6.86583333 Z" id="Fill-95" fill="#FAB31E"></path>
                <path d="M21.6663353,16.2140682 C21.1471183,15.5713409 20.6031013,15.0373258 20.0369226,14.612553 C18.8354417,13.9576288 17.6888374,13.6304318 16.5971098,13.6304318 L10.9706757,13.6304318 L10.9131609,13.6304318 C10.9131609,13.6304318 12.7583864,16.0263409 12.7583864,16.1042955 L12.7583864,19.7978561 L12.7583864,23.3466439 L12.7583864,25.7483864 L17.1395438,25.7483864 C18.0988289,25.7483864 19.1251268,25.3845985 20.2173821,24.6564924 C21.9074757,23.2983864 22.7527864,21.6846742 22.7527864,19.816947 L22.7527864,19.4165682 C22.7527864,18.3914924 22.3902843,17.3239924 21.6663353,16.2140682 M19.4211438,22.5092955 C18.6971949,23.2374015 17.7795949,23.6011894 16.6688715,23.6011894 L14.9307609,23.6011894 L14.9307609,15.7770985 L16.3786587,15.7770985 C16.8435268,15.7770985 17.326863,15.837553 17.8276119,15.9595227 C19.6865566,16.7358864 20.6162928,17.996947 20.6162928,19.7437652 C20.6162928,20.720053 20.2173821,21.64225 19.4211438,22.5092955" id="Fill-97" fill="#FFFFFF"></path>
                <path d="M31.7361379,20.7263106 L31.7361379,20.6897197 C31.8569719,20.6897197 32.0743677,20.6287348 32.3872698,20.5078258 C33.8604953,19.7500227 34.5971081,18.6703258 34.5971081,17.2692652 L34.5971081,17.1600227 C34.5971081,16.565553 34.4398655,15.9832803 34.1259081,15.4132045 C33.3291421,14.2242652 32.3519166,13.6303258 31.1931762,13.6303258 L22.7527336,13.6303258 L24.6027081,16.1041894 L24.6027081,21.6437348 L24.6027081,23.3465379 L24.6027081,25.7482803 L26.7750826,25.7482803 L26.7750826,20.7629015 L29.0208017,20.7629015 L32.9676953,25.7482803 L35.6672017,25.7482803 L31.7361379,20.7263106 Z M26.7750826,18.6157045 L26.7750826,15.7769924 L30.757857,15.7769924 L31.4464528,15.8496439 C32.0981123,16.1471439 32.424206,16.5475227 32.424206,17.0507803 L32.424206,17.3419167 L32.3872698,17.5964621 C32.1587932,18.2757803 31.6031677,18.6157045 30.7225038,18.6157045 L26.7750826,18.6157045 Z" id="Fill-99" fill="#FFFFFF"></path>
                <path d="M40.6074145,21.1991288 L41.8933209,17.7754924 L43.1781719,21.1991288 L40.6074145,21.1991288 Z M47.0527762,25.2750379 C44.1321804,17.5596591 42.6473464,13.7027652 42.5993294,13.7027652 L38.4223762,13.7027652 L40.2085038,16.1045076 L36.5365209,25.7480682 L36.6241123,25.7480682 L38.7975421,25.7480682 L39.7388868,23.3829167 L44.0477549,23.3829167 L44.9885719,25.7480682 L47.1973549,25.7480682 L47.2342911,25.7114773 L47.0527762,25.2750379 Z" id="Fill-101" fill="#FFFFFF"></path>
                <path d="M53.8185328,18.6157045 L52.6239115,20.7629015 L55.4479455,20.7629015 L55.4479455,23.6010833 L53.7462434,23.6010833 C52.9494774,23.6010833 52.2608817,23.4313864 51.6825668,23.0914621 C50.4024647,22.1761591 49.7624136,21.0466136 49.7624136,19.7436591 C49.7624136,19.1104773 49.90752,18.6517652 49.90752,18.6517652 C50.6135285,16.73525 51.9775285,15.7769924 53.9989923,15.7769924 L56.2447115,15.7769924 L56.6045753,16.7596439 L56.6024647,16.7601742 L56.749154,17.1531288 L56.750737,17.1594924 C56.750737,17.1594924 59.2360136,13.7512348 59.2360136,13.6297955 L53.7098349,13.6297955 C52.316286,13.6297955 51.0119115,14.1033561 49.7993498,15.0488864 C48.3509243,16.3894924 47.6264477,17.8451742 47.6264477,19.4159318 L47.6264477,19.78025 C47.6264477,21.4056288 48.2670264,22.8613106 49.5460732,24.1472955 C50.7644391,25.2147955 51.9954689,25.7482803 53.2391626,25.7482803 L57.5485583,25.7482803 L57.6208477,25.7482803 L57.6208477,18.6883561 L57.5485583,18.6157045 L53.8185328,18.6157045 Z" id="Fill-103" fill="#FFFFFF"></path>
                <path d="M65.9320136,13.5936288 C62.5824306,13.5936288 59.8670945,16.3225682 59.8670945,19.6889318 C59.8670945,23.0558258 62.5824306,25.7847652 65.9320136,25.7847652 C69.2815966,25.7847652 71.9969328,23.0558258 71.9969328,19.6889318 C71.9969328,16.3225682 69.2815966,13.5936288 65.9320136,13.5936288 M65.9320136,23.6009773 C63.7823285,23.6009773 62.0394689,21.8499167 62.0394689,19.6889318 C62.0394689,17.5284773 63.7823285,15.7774167 65.9320136,15.7774167 C68.0816987,15.7774167 69.825086,17.5284773 69.825086,19.6889318 C69.825086,21.8499167 68.0816987,23.6009773 65.9320136,23.6009773" id="Fill-105" fill="#FFFFFF"></path>
                <path d="M80.4853923,13.6301136 L82.3089838,15.9353409 L82.3089838,15.9348106 L82.3089838,21.563447 L82.273103,21.563447 C80.8964391,19.743447 78.821154,17.0993561 76.045137,13.6301136 L72.6280136,13.6301136 L74.4510774,15.9353409 L74.4510774,21.9558712 L74.4510774,23.3463258 L74.4510774,25.7480682 L76.6239796,25.7480682 L76.6239796,17.8513258 L82.8519455,25.7480682 L84.4460051,25.7480682 L84.4460051,13.6301136 L80.4853923,13.6301136 Z" id="Fill-107" fill="#FFFFFF"></path>
                <path d="M92.9024357,18.6157045 L89.7924102,18.6157045 C89.0141123,18.6157045 88.3803932,17.9793409 88.3803932,17.1960833 C88.3803932,16.4133561 89.0141123,15.7764621 89.7924102,15.7764621 L93.2997634,15.7764621 L93.8205634,17.1600227 L96.3047847,13.6303258 L94.0991677,13.6303258 L89.7924102,13.6303258 C87.8363762,13.6303258 86.2449549,15.2297197 86.2449549,17.1960833 C86.2449549,19.162447 87.8363762,20.7623712 89.7924102,20.7623712 L92.9024357,20.7623712 C93.6807336,20.7623712 94.3144528,21.3987348 94.3144528,22.1819924 C94.3144528,22.9647197 93.6807336,23.6016136 92.9024357,23.6016136 L89.2220102,23.6016136 L88.7006826,22.2185833 L86.2164613,25.74775 L88.2590315,25.74775 L88.4231336,25.74775 L92.9024357,25.74775 C94.8579421,25.74775 96.4498911,24.1483561 96.4498911,22.1819924 C96.4498911,20.2156288 94.8579421,18.6157045 92.9024357,18.6157045" id="Fill-109" fill="#FFFFFF"></path>
                <g id="Group-113" transform="translate(10.025532, 31.299545)">
                    <mask id="mask-10" fill="white">
                        <use xlink:href="#path-9"></use>
                    </mask>
                    <g id="Clip-112"></g>
                    <path d="M66.1442911,44.8558409 C64.8678826,45.6104621 63.3223677,46.37675 61.3985209,47.2156894 C61.0576528,47.3641742 60.671406,47.5190227 60.2197294,47.6881894 C57.318657,48.7758409 53.9326655,49.4254621 51.1613974,49.4254621 C50.20264,49.4254621 49.5040187,49.3453864 49.0486485,49.2557652 C49.9171762,48.0021288 52.084274,46.1248561 55.387423,44.684553 C57.9539591,43.5672045 60.4909464,42.9515227 62.5319336,42.9515227 C64.0172953,42.9515227 65.1739251,43.2728864 65.705806,43.833947 C65.8667421,44.0031136 65.9279506,44.0678106 66.0640868,44.4952348 L66.1442911,44.8558409 Z M106.78938,18.5740227 C106.737142,18.5724318 105.480257,18.5390227 103.761142,18.5390227 L103.647695,18.5390227 C97.7152187,18.5390227 85.7932783,19.9793258 72.4477123,29.6101591 C71.9707081,29.4759924 71.4868443,29.3593258 71.0008698,29.26175 L69.2996953,28.9202348 L69.1308443,28.8868258 L68.9588272,28.8698561 C68.1652272,28.794553 67.3399677,28.7563712 66.5057379,28.7563712 C61.7177549,28.7558409 56.2870826,30.019553 50.7983677,32.4106894 C42.6644953,35.9568258 36.6592017,41.49425 34.7348272,47.2225833 C33.66104,50.4187197 33.8821294,53.5231136 35.373823,56.2011439 C37.2317123,59.5351591 40.8224357,61.7878864 45.5307421,62.6862197 C44.64744,62.9227348 43.7931591,63.1178864 42.9985038,63.2552348 C41.5484953,63.5065985 40.1465038,63.6338712 38.8284102,63.6338712 C34.8598826,63.6338712 31.6791506,62.4915985 29.6276102,60.3311439 C28.0156102,58.6325833 27.1993209,56.4434924 27.1993209,53.8248561 C27.1993209,53.5225833 27.211457,53.1985682 27.2357294,52.8612955 C27.7032357,46.4997803 32.497023,39.1741742 40.0599677,33.2655379 C45.5972272,28.9409167 51.8689889,26.001447 57.7212613,24.9890985 C58.8836953,24.7881136 60.0292443,24.664553 61.1267762,24.6237197 L62.3641379,24.5812955 L62.3894655,24.5812955 L62.4876102,24.5791742 L64.8520528,24.5208409 L65.6013294,22.2654621 L68.1277634,14.6619773 L80.7140272,6.80182576 L88.7613634,1.77561364 L79.3648017,0.564401515 C76.6536868,0.214931818 73.8285974,0.0378106061 70.9686826,0.0378106061 C68.0238145,0.0378106061 64.9628613,0.225537879 61.8718315,0.59675 L61.8364783,0.600462121 L61.8021804,0.605234848 L57.2073209,1.25379545 L57.1561379,1.26068939 L57.1038996,1.27023485 C46.1998145,3.15864394 34.6683421,8.51576515 24.6333123,16.3557652 C10.3796443,27.4905379 1.2917634,41.9678106 0.323508085,55.0827348 C0.264937872,55.884553 0.235388936,56.6831894 0.235388936,57.4584924 C0.235388936,64.55925 2.66578894,70.8725076 7.26275915,75.7147045 C12.7240357,81.4663712 20.6009379,84.5060682 30.0423506,84.5060682 C32.7455506,84.5060682 35.5822485,84.252053 38.4743506,83.751447 C46.4056017,82.3800833 54.7489549,79.1510682 62.6015847,74.4149318 C63.7867081,73.6921288 65.6134655,72.5323561 67.9420272,70.713947 C72.1353379,67.4382652 75.7841038,63.61425 78.4931081,59.653947 L78.5047166,59.6375076 L78.5163251,59.6200076 L78.8851591,59.0679621 C79.0561209,58.8086439 79.2149464,58.5636439 79.3684953,58.3186439 C79.4581974,58.1765227 79.5537038,58.0216742 79.6555421,57.8546288 C79.792206,57.62925 79.9246485,57.4012197 80.0560357,57.1737197 C80.8021464,55.8760682 81.4147591,54.6118258 81.8843762,53.4059167 C83.1396783,50.17425 83.530674,48.09175 83.7660102,46.3226591 C83.7792017,46.2250833 83.7908102,46.1275076 83.8024187,46.0299318 L83.8736528,45.4062955 L83.9807677,45.2944015 C84.453023,44.8065227 84.9305549,44.3096288 85.3769549,43.8429621 C85.5975166,44.0943258 85.81544,44.358947 86.0301974,44.6378864 C86.1193719,44.754553 86.2074911,44.8712197 86.2934996,44.988947 C87.6902145,46.9033409 91.5416017,54.3074318 92.8744698,56.8963712 C94.3487506,52.5203106 96.0805294,47.8918258 97.693057,44.0036439 C98.2587081,42.5903864 98.8554911,41.2306894 99.4670485,39.9298561 C99.9519677,38.8793258 100.409449,37.9486439 100.822606,37.1807652 L100.822606,37.1828864 C102.667831,33.6165985 104.537329,30.6357652 106.019525,28.4556894 C106.021636,28.4525076 106.029023,28.4408409 106.029023,28.4408409 C106.037993,28.4265227 106.048546,28.4116742 106.058572,28.3978864 C106.749806,27.3818258 107.356614,26.5418258 107.832563,25.9028106 C108.000887,25.6737197 108.208785,25.41175 108.414044,25.1603864 C110.412819,22.5406894 112.558283,19.9581136 113.567168,18.7580379 L106.78938,18.5740227 Z" id="Fill-111" fill="#FAB31E" mask="url(#mask-10)"></path>
                </g>
                <path d="M78.708657,77.2118561 C77.096657,78.3185985 75.0620017,79.3903409 72.3181719,80.5867045 C71.9403677,80.7516288 71.51824,80.9202652 71.0306826,81.1032197 C67.8452017,82.2979924 64.2571166,82.9831439 61.1871932,82.9831439 C59.5857464,82.9831439 58.2454911,82.778447 57.5104613,82.4220833 C56.8999591,82.1267045 56.6820357,81.8376894 56.5596187,81.6186742 C56.4656953,81.448447 56.362274,81.1467045 56.5728102,80.5251894 C57.3020357,78.3520076 60.5687762,75.6347348 64.5193634,73.9128409 C67.40144,72.656553 70.182206,71.9920833 72.558257,71.9920833 C74.715857,71.9920833 76.3753464,72.5398864 77.3573209,73.5750379 C77.8095251,74.0496591 78.0226996,74.4357197 78.2612017,75.2099621 L78.6010145,76.7308712 L78.708657,77.2118561 Z M87.5210996,66.0823864 C88.311006,66.4127652 89.1515677,66.8073106 89.9525549,67.2607197 C89.7108868,67.4770833 89.4713294,67.6939773 89.2328272,67.9119318 C88.6888102,67.2045076 88.1073294,66.5994318 87.5210996,66.0823864 Z M116.755023,52.1311742 C116.741831,52.1306439 115.475449,52.0972348 113.786938,52.0972348 L113.673491,52.0967045 C107.989542,52.0967045 96.5293038,53.4935227 83.6359421,62.8507197 L82.878223,63.4006439 C82.1416102,63.1439773 81.3664783,62.9318561 80.5865974,62.775947 L78.885423,62.4344318 L78.8294911,62.4232955 L78.7709209,62.4174621 C78.0485549,62.349053 77.2945294,62.3135227 76.5304783,62.3135227 C72.0485379,62.3129924 66.9265464,63.5130682 61.7180187,65.7817045 C54.2701038,69.02875 48.5877379,74.1875379 46.8881464,79.2445076 C46.0243677,81.8180682 46.1863591,84.2919318 47.359874,86.3977652 C49.4034996,90.0632197 54.1540187,92.1653409 60.3941209,92.1653409 C62.6224272,92.1653409 64.9235506,91.8975379 67.2605549,91.3725379 C67.2188698,91.4006439 67.1787677,91.4271591 67.1354996,91.4563258 C63.7315677,93.7270833 57.82864,96.0158712 53.4042145,96.7800379 C51.830206,97.0531439 50.2989379,97.1920833 48.8547336,97.1920833 C44.2567081,97.1920833 40.5124357,95.8074621 38.0271591,93.1893561 C36.0315506,91.0861742 34.9772868,88.2978409 34.9772868,85.1239773 C34.9772868,84.7670833 34.9920613,84.3873864 35.0205549,83.9954924 C35.5344953,77.0071591 40.6496272,69.075947 48.7064613,62.7817803 C54.5297123,58.2339015 61.1555336,55.1374621 67.3660868,54.0625379 C68.6261379,53.8445833 69.8724698,53.710947 71.0692017,53.6664015 L72.3361123,53.6229167 L72.383074,53.6223864 L72.457474,53.6207955 L73.2457974,53.6022348 L73.4953804,52.8497348 L76.2787847,44.4741288 L89.5546996,36.1823106 L92.2367932,34.5070833 L89.1035506,34.1035227 C86.4874145,33.7667803 83.7588868,33.5949621 80.993423,33.5949621 C78.1372017,33.5949621 75.1664783,33.7779167 72.1640953,34.1379924 L67.5460187,34.7892045 L67.528606,34.7918561 L67.5111932,34.7950379 C56.9632783,36.6214015 45.7863932,41.821553 36.0378826,49.4377652 C22.2781038,60.1880682 13.5120953,74.0607955 12.5897464,86.5489015 C12.5359251,87.2945076 12.5079591,88.0374621 12.5079591,88.7581439 C12.5079591,95.2670833 14.7225464,101.041553 18.914274,105.456326 C23.9402315,110.74928 31.2551762,113.547689 40.0681464,113.547689 C42.6431251,113.547689 45.3521294,113.304811 48.1175932,112.825417 C55.7786826,111.50072 63.85504,108.371932 71.4707506,103.778447 C72.5999421,103.090114 74.3512443,101.977008 76.5885209,100.229129 C80.6018996,97.0950379 84.0860357,93.4449621 86.6668187,89.6739773 L87.0435677,89.1107955 C87.1986996,88.8753409 87.3480272,88.6451894 87.4931336,88.4139773 C87.5796698,88.2782197 87.6683166,88.133447 87.7617123,87.9785985 C87.8920443,87.7648864 88.0165719,87.5511742 88.1400443,87.3374621 C88.8260017,86.14375 89.3890145,84.9829167 89.8169464,83.8830682 C90.9213379,81.0422348 91.3139166,79.2052652 91.5640272,77.3226894 C91.5761634,77.2389015 91.5856613,77.1551136 91.5962145,77.0723864 L91.7555677,75.6713258 C91.8690145,75.5578409 91.976657,75.4523106 92.0916868,75.3351136 L92.3903421,75.0248864 C93.5000102,73.8799621 94.6344783,72.6857197 95.3330996,71.9475379 C96.2058485,72.656553 97.0437719,73.5304924 97.832623,74.5555682 C97.9344613,74.6876136 98.0336613,74.8196591 98.1307506,74.9522348 C99.967006,77.4679924 102.643823,83.530947 102.643823,83.530947 L103.4179,80.8661742 C106.878819,68.9550379 113.411772,59.4032197 116.05904,55.8491288 C116.640521,55.0589773 117.555483,54.0185227 117.565508,54.008447 L119.161151,52.1964015 L116.755023,52.1311742 Z" id="Fill-114" fill="#FFFFFF"></path>
                <path d="M94.7476613,70.1439242 L94.7524102,70.1471061 L94.7476613,70.1439242 Z" id="Fill-116" fill="#DC2F34"></path>
                <path d="M83.0541447,83.5514167 C82.6547064,83.8499773 82.2494638,84.1490682 81.8389447,84.4476288 C79.4169872,86.2108864 76.7950468,87.9380833 73.8992511,89.2002045 C72.8671489,89.6504318 71.8054979,90.0571742 70.7438468,90.4098258 L70.5744681,90.4665682 C69.9418043,90.9146742 69.0315915,91.5457348 67.7578213,92.3963409 C64.2631319,94.7270227 58.2219574,97.0932348 53.5949106,97.8929318 C46.5875915,99.1073258 40.769617,97.71475 37.2147745,93.9686894 C35.0038809,91.6390682 33.8541106,88.6014924 33.8541106,85.1242955 C33.8541106,84.7260379 33.8704681,84.321947 33.900017,83.912553 C34.4361191,76.6102803 39.7132426,68.3773258 48.0175489,61.8901288 C53.9811574,57.2314167 60.7853277,54.0559621 67.1747574,52.9502803 C68.4896851,52.7227803 69.7850894,52.5843712 71.0277277,52.5382348 C71.0277277,52.5382348 72.0255319,52.5037652 72.2962213,52.49475 C72.3416,52.4936894 72.3848681,52.4936894 72.4297191,52.4926288 L75.3313191,43.7606591 L75.3413447,43.7299015 L88.960766,35.2238409 C84.0931064,34.5959621 78.5553191,34.5084621 72.2962213,35.2588409 C71.9780426,35.304447 67.7018894,35.9074015 67.7018894,35.9074015 C57.3333787,37.7035379 46.3327319,42.8246742 36.727217,50.3289924 C23.2128,60.8867955 14.608783,74.4599015 13.7107064,86.631947 C13.6574128,87.3499773 13.6320851,88.0595227 13.6320851,88.7579318 C13.6320851,94.9836894 15.7179234,100.453765 19.7265532,104.676568 C25.9946213,111.27778 36.0090723,113.776038 47.9273191,111.713159 C55.455966,110.410735 63.3977702,107.331265 70.8926468,102.809902 C71.9944,102.138538 73.7103489,101.048235 75.8985532,99.3380076 C79.8929362,96.2192955 83.2446298,92.6832348 85.7420426,89.0342197 L86.1098213,88.4821742 C86.2565106,88.2589167 86.4026723,88.0361894 86.5425021,87.8113409 C86.6269277,87.6787652 86.7129362,87.5398258 86.803166,87.3902803 C86.9292766,87.1834621 87.0490553,86.9761136 87.1693617,86.7692955 C87.7044085,85.837553 88.2938043,84.6974015 88.7708085,83.4718712 C89.8335149,80.7360379 90.2107915,78.9749015 90.4514043,77.1729318 C90.4609021,77.0955076 90.4704,77.0191439 90.4788426,76.9433106 C87.4806809,79.8955076 85.0402553,82.0670985 83.0541447,83.5514167" id="Fill-118" fill="#DC2F34"></path>
                <path d="M81.839103,84.4475758 C72.3201243,104.053409 28.3011796,116.705909 23.4820647,90.4007576 C19.2022179,67.0430303 49.2656221,46.3665152 72.2963796,43.8963636 C73.3369243,43.825303 74.3410604,43.7860606 75.3309498,43.7606061 L75.341503,43.7298485 L88.9609243,35.2237879 C84.092737,34.5964394 78.5549498,34.5084091 72.2963796,35.2593182 C71.9782009,35.3043939 67.7020477,35.9073485 67.7020477,35.9073485 C57.3330094,37.7034848 46.3328902,42.8246212 36.727903,50.3289394 C23.2129583,60.8872727 14.6094689,74.4598485 13.710337,86.6324242 C13.6575711,87.3499242 13.6317157,88.0594697 13.6317157,88.7578788 C13.6317157,94.9841667 15.717554,100.453182 19.7267115,104.676515 C25.9947796,111.277727 36.0092306,113.775985 47.9269498,111.713106 C55.4561243,110.410682 63.3979285,107.331212 70.8928051,102.809848 C71.9945583,102.139015 73.7105072,101.048182 75.8987115,99.3384848 C79.8930945,96.2192424 83.2447881,92.6831818 85.7416732,89.0341667 L86.1099796,88.4821212 C86.2566689,88.2588636 86.402303,88.0356061 86.5426604,87.8118182 C86.6260306,87.6787121 86.7125668,87.5397727 86.8033243,87.3902273 C86.9289072,87.1834091 87.0492136,86.9760606 87.16952,86.7692424 C87.7040391,85.8380303 88.2934349,84.6973485 88.7709668,83.4718182 C89.8331455,80.7359848 90.2104221,78.9748485 90.4510349,77.1728788 C90.4615881,77.0959848 90.4700306,77.0190909 90.4790009,76.9437879 C87.4803115,79.8959848 85.039886,82.0670455 83.054303,83.5513636 C82.6553923,83.8504545 82.2490945,84.1490152 81.839103,84.4475758" id="Fill-120" fill="#B4292D"></path>
                <path d="M113.786199,53.2259848 L113.785671,53.2259848 L113.783561,53.2259848 C108.705365,53.2079545 97.2176885,54.3873485 84.2931949,63.7657576 C84.2931949,63.7657576 87.8427609,64.6985606 90.7944885,66.4453788 C90.7944885,66.4453788 96.3665736,61.167803 104.771135,58.0734848 L104.772191,58.0729545 C99.4074757,61.0039394 93.6443779,65.1747727 88.4817566,70.1638636 L88.378863,70.2699242 C86.0291949,72.6324242 83.6716119,74.7425 80.5837481,77.2232576 C78.7253311,78.7187121 76.3128715,80.0752273 72.7659438,81.6226515 C72.3227098,81.8151515 71.8747268,81.9922727 71.4241055,82.1609091 C65.6995268,84.3081061 59.4214332,84.6024242 57.0221651,83.4389394 C56.3346247,83.1059091 55.8776715,82.7039394 55.5795438,82.1715152 C55.2666417,81.6051515 55.2434247,80.9470455 55.5093651,80.1611364 C56.3446502,77.6708333 59.786046,74.7451515 64.0722247,72.8768939 C70.1640545,70.2227273 75.6981481,70.1898485 78.1702332,72.7962879 C78.7575183,73.4130303 79.054063,73.9491667 79.3479694,74.9201515 C79.3479694,74.9201515 79.5537566,75.8455303 79.69728,76.4829545 C79.7579609,76.4357576 79.8233906,76.3890909 79.8814332,76.3413636 C81.3541311,75.1582576 82.9893481,73.7672727 84.5496374,72.3815909 C85.9780119,71.1136364 87.3441226,69.8499242 88.4606502,68.7553788 C86.9341311,66.7052273 85.0583013,65.555 83.6969396,64.9398485 C82.6859438,64.4827273 81.5351183,64.1168182 80.3663523,63.8829545 L78.6651779,63.5414394 C73.9489566,63.0917424 68.2275438,64.1767424 62.1647353,66.8176515 C55.0007013,69.9411364 49.5541991,74.8416667 47.9527523,79.6059091 C47.1929226,81.8697727 47.3274757,84.0270455 48.3405821,85.8465152 C51.1698928,90.9231061 59.9485651,92.3909848 69.0929055,89.7378788 C70.544497,89.3168182 72.0045311,88.7960606 73.4524289,88.1644697 C76.7265566,86.7374242 79.6793396,84.6697727 82.3830672,82.6461364 C84.6731098,80.9332576 87.5894843,78.2812121 91.2952374,74.5388636 L91.5822843,74.2408333 C93.3742162,72.3900758 95.2036119,70.442803 95.2036119,70.442803 C100.117178,73.8224242 102.33968,80.5498485 102.33968,80.5498485 C105.824871,68.5522727 112.322471,58.9808333 115.160225,55.1711364 C115.77442,54.3375 116.72368,53.2599242 116.72368,53.2599242 C116.72368,53.2599242 115.479986,53.2259848 113.786199,53.2259848" id="Fill-122" fill="#DC2F34"></path>
                <path d="M92.7895694,64.7766742 L92.7906247,64.7750833 C92.7906247,64.7750833 88.7735523,62.954553 84.2926672,63.7659167 C84.2926672,63.7659167 87.8432885,64.6981894 90.7944885,66.4455379 C90.7944885,66.4455379 91.5026077,65.7762955 92.7895694,64.7766742" id="Fill-124" fill="#B4292D"></path>
                <path d="M95.7118009,67.0457348 C95.7118009,67.0457348 89.3677498,73.4533864 80.3616562,81.1565682 C77.8072562,83.2152045 74.1067796,84.9535379 70.2073753,86.1143712 C61.6745923,88.6545227 52.1951881,88.4249015 51.7129072,82.7092955 C51.0105923,74.3814167 63.0180136,68.3836894 72.0056391,67.1136136 C79.7268817,66.02225 83.6078179,70.9657348 84.5496902,72.3821742 C85.977537,71.1136894 87.3441753,69.8505076 88.460703,68.7554318 C86.9341838,66.7058106 85.058354,65.555053 83.6964647,64.9399015 C82.6854689,64.4833106 81.5351711,64.1168712 80.3664051,63.8830076 L78.6652306,63.5420227 C73.949537,63.0917955 68.2275966,64.1767955 62.1647881,66.8177045 C55.000754,69.9417197 49.5537243,74.8417197 47.9528051,79.6059621 C47.193503,81.8703561 47.3270009,84.0270985 48.3406349,85.8465682 C51.1694179,90.9231591 59.9486179,92.3899773 69.0929583,89.7379318 C70.5445498,89.3174015 72.0045838,88.7961136 73.451954,88.1645227 C76.7266094,86.7374773 79.6793923,84.6703561 82.38312,82.6467197 C84.6731626,80.9338409 87.5890094,78.2812652 91.2958179,74.539447 L91.5828647,74.2408864 C93.3742689,72.3906591 95.2036647,70.4433864 95.2036647,70.4433864 C100.117231,73.8224773 102.339733,80.5499015 102.339733,80.5499015 C102.12392,72.2936136 95.7118009,67.0457348 95.7118009,67.0457348" id="Fill-126" fill="#B4292D"></path>
                <path d="M92.7895694,64.7766742 L92.7906247,64.7750833 C92.7906247,64.7750833 88.7735523,62.954553 84.2926672,63.7659167 C84.2926672,63.7659167 87.8432885,64.6981894 90.7944885,66.4455379 C90.7944885,66.4455379 91.5026077,65.7762955 92.7895694,64.7766742" id="Fill-128" fill="#B4292D"></path>
                <path d="M92.7895694,64.7766742 L92.7906247,64.7750833 C92.7906247,64.7750833 88.7735523,62.954553 84.2926672,63.7659167 C84.2926672,63.7659167 87.8432885,64.6981894 90.7944885,66.4455379 C90.7944885,66.4455379 91.5026077,65.7762955 92.7895694,64.7766742" id="Fill-130" fill="#B4292D"></path>
            </g>
        </g>
    </g>
</svg>