<?xml version="1.0" encoding="UTF-8"?>
<svg width="24px" height="23px" viewBox="0 0 24 23" version="1.1" xmlns="http://www.w3.org/2000/svg" xmlns:xlink="http://www.w3.org/1999/xlink">
    <!-- Generator: Sketch 52.3 (67297) - http://www.bohemiancoding.com/sketch -->
    <title>phone</title>
    <desc>Created with Sketch.</desc>
    <g id="Page-1" stroke="none" stroke-width="1" fill="none" fill-rule="evenodd">
        <g id="Dragons_Generic_WF_v4" transform="translate(-105.000000, -2893.000000)" fill="#FABE35">
            <g id="Group-11" transform="translate(0.000000, 2059.000000)">
                <g id="Group-21" transform="translate(102.000000, 754.000000)">
                    <g id="ic_local_phone_24px" transform="translate(0.000000, 71.365591)">
                        <g id="Group">
                            <path d="M8.27046575,18.4477419 C10.0694795,21.9776344 12.9678904,24.8589247 16.5034521,26.6675269 L19.2519452,23.9234409 C19.5892603,23.5866667 20.0889863,23.4744086 20.5262466,23.624086 C21.9254795,24.0855914 23.4371507,24.3350538 24.9863014,24.3350538 C25.6734247,24.3350538 26.2356164,24.8963441 26.2356164,25.5823656 L26.2356164,29.9354839 C26.2356164,30.6215054 25.6734247,31.1827957 24.9863014,31.1827957 C13.2552329,31.1827957 3.74794521,21.6907527 3.74794521,9.97849462 C3.74794521,9.29247312 4.31013699,8.7311828 4.99726027,8.7311828 L9.36986301,8.7311828 C10.0569863,8.7311828 10.6191781,9.29247312 10.6191781,9.97849462 C10.6191781,11.5376344 10.8690411,13.0344086 11.3312877,14.4313978 C11.4687123,14.867957 11.3687671,15.3544086 11.0189589,15.7036559 L8.27046575,18.4477419 L8.27046575,18.4477419 Z" id="phone"></path>
                        </g>
                    </g>
                </g>
            </g>
        </g>
    </g>
</svg>