<?xml version="1.0" encoding="UTF-8"?>
<svg width="11px" height="10px" viewBox="0 0 11 10" version="1.1" xmlns="http://www.w3.org/2000/svg" xmlns:xlink="http://www.w3.org/1999/xlink">
    <!-- Generator: Sketch 52.3 (67297) - http://www.bohemiancoding.com/sketch -->
    <title>social-instagram</title>
    <desc>Created with Sketch.</desc>
    <g id="Page-1" stroke="none" stroke-width="1" fill="none" fill-rule="evenodd">
        <g id="Dragons_Generic_WF_v4" transform="translate(-702.000000, -46.000000)" fill="#FFFFFF">
            <g id="Group-2" transform="translate(698.000000, 41.000000)">
                <path d="M14.8549056,13.814 C14.8549056,14.469 14.3281754,15.00025 13.6776543,15.00025 L6.12888646,15.00025 C5.47898434,15.00025 4.95163519,14.469 4.95163519,13.814 L4.95163519,6.185875 C4.95163519,5.530875 5.47898434,5.00025 6.12888646,5.00025 L13.6776543,5.00025 C14.3281754,5.00025 14.8549056,5.530875 14.8549056,6.185875 L14.8549056,13.814 Z M9.91484483,11.930125 C10.9664484,11.930125 11.8193675,11.071375 11.8193675,10.011375 C11.8193675,8.952 10.9664484,8.09325 9.91484483,8.09325 C8.86324131,8.09325 8.01032214,8.952 8.01032214,10.011375 C8.01032214,11.071375 8.86324131,11.930125 9.91484483,11.930125 Z M12.1078622,8.0465 L13.4466605,8.0465 C13.5995423,8.0465 13.7239521,7.9215 13.7239521,7.76775 L13.7239521,6.418375 C13.7239521,6.264625 13.5995423,6.139625 13.4466605,6.139625 L12.1078622,6.139625 C11.9549804,6.139625 11.8305706,6.264625 11.8305706,6.418375 L11.8305706,7.76775 C11.8305706,7.9215 11.9549804,8.0465 12.1078622,8.0465 Z M12.9273578,10.011625 C12.9273578,11.68475 11.5761803,13.046625 9.91490673,13.046625 C8.25363312,13.046625 6.90245567,11.68475 6.90245567,10.011625 C6.90245567,9.734125 6.93959293,9.46475 7.00953478,9.209125 L6.08296004,9.209125 L6.08296004,13.557875 C6.08296004,13.71225 6.20675092,13.83725 6.35963266,13.83725 L13.4695618,13.83725 C13.6230625,13.83725 13.7468534,13.71225 13.7468534,13.557875 L13.7468534,9.209125 L12.8202787,9.209125 C12.8902205,9.46475 12.9273578,9.734125 12.9273578,10.011625 Z" id="social-instagram"></path>
            </g>
        </g>
    </g>
</svg>