<?xml version="1.0" encoding="UTF-8"?>
<svg width="12px" height="8px" viewBox="0 0 12 8" version="1.1" xmlns="http://www.w3.org/2000/svg" xmlns:xlink="http://www.w3.org/1999/xlink">
    <!-- Generator: Sketch 52.3 (67297) - http://www.bohemiancoding.com/sketch -->
    <title>Combined Shape</title>
    <desc>Created with Sketch.</desc>
    <g id="Page-1" stroke="none" stroke-width="1" fill="none" fill-rule="evenodd">
        <g id="Dragons_Generic_WF_v4" transform="translate(-1248.000000, -237.000000)" fill="#FFFFFF">
            <g id="Group-10" transform="translate(1093.000000, 229.000000)">
                <g id="Google-+" transform="translate(149.000000, 0.000000)">
                    <path d="M9.81818182,11.6571429 L13.4236364,11.6571429 C13.4563636,11.8471429 13.4836364,12.0371429 13.4836364,12.2868571 C13.4836364,14.4582857 12.0218182,16 9.81818182,16 C7.70727273,16 6,14.3008571 6,12.2 C6,10.0991429 7.70727273,8.4 9.81818182,8.4 C10.8490909,8.4 11.7109091,8.77457143 12.3763636,9.39342857 L11.34,10.3868571 C11.0563636,10.1154286 10.56,9.80057143 9.81818182,9.80057143 C8.51454545,9.80057143 7.45090909,10.8754286 7.45090909,12.2 C7.45090909,13.5245714 8.51454545,14.5994286 9.81818182,14.5994286 C11.3290909,14.5994286 11.8963636,13.5191429 11.9836364,12.96 L9.81818182,12.96 L9.81818182,11.6571429 Z M18,11.6571429 L18,12.7428571 L16.9090909,12.7428571 L16.9090909,13.8285714 L15.8181818,13.8285714 L15.8181818,12.7428571 L14.7272727,12.7428571 L14.7272727,11.6571429 L15.8181818,11.6571429 L15.8181818,10.5714286 L16.9090909,10.5714286 L16.9090909,11.6571429 L18,11.6571429 Z" id="Combined-Shape"></path>
                </g>
            </g>
        </g>
    </g>
</svg>