<?xml version="1.0" encoding="UTF-8"?>
<svg width="11px" height="8px" viewBox="0 0 11 8" version="1.1" xmlns="http://www.w3.org/2000/svg" xmlns:xlink="http://www.w3.org/1999/xlink">
    <!-- Generator: Sketch 52.3 (67297) - http://www.bohemiancoding.com/sketch -->
    <title>social-youtube</title>
    <desc>Created with Sketch.</desc>
    <g id="Page-1" stroke="none" stroke-width="1" fill="none" fill-rule="evenodd">
        <g id="Dragons_Generic_WF_v4" transform="translate(-764.000000, -47.000000)" fill="#FFFFFF">
            <g id="Group" transform="translate(760.000000, 41.000000)">
                <path d="M14.9700599,10.37775 C14.9700599,11.187125 14.8702595,11.9965 14.8702595,11.9965 C14.8702595,11.9965 14.7729541,12.68525 14.4735529,12.989 C14.0943114,13.387125 13.6689122,13.389 13.4736776,13.412125 C12.0770958,13.513375 9.98003992,13.5165 9.98003992,13.5165 C9.98003992,13.5165 7.38522954,13.49275 6.58682635,13.4165 C6.36477046,13.374625 5.86576846,13.387125 5.48652695,12.989 C5.18712575,12.68525 5.08982036,11.9965 5.08982036,11.9965 C5.08982036,11.9965 4.99001996,11.187125 4.99001996,10.37775 L4.99001996,9.619 C4.99001996,8.809625 5.08982036,8.000875 5.08982036,8.000875 C5.08982036,8.000875 5.18712575,7.3115 5.48652695,7.00775 C5.86576846,6.609625 6.29116766,6.60775 6.4864022,6.584625 C7.88298403,6.483375 9.97816866,6.483375 9.97816866,6.483375 L9.98191118,6.483375 C9.98191118,6.483375 12.0770958,6.483375 13.4736776,6.584625 C13.6689122,6.60775 14.0943114,6.609625 14.4735529,7.00775 C14.7729541,7.3115 14.8702595,8.000875 14.8702595,8.000875 C14.8702595,8.000875 14.9700599,8.809625 14.9700599,9.619 L14.9700599,10.37775 Z M8.94972555,11.297125 L11.6462076,9.897125 L8.9491018,8.487125 L8.94972555,11.297125 Z" id="social-youtube"></path>
            </g>
        </g>
    </g>
</svg>