<?xml version="1.0" encoding="UTF-8"?>
<svg width="11px" height="10px" viewBox="0 0 11 10" version="1.1" xmlns="http://www.w3.org/2000/svg" xmlns:xlink="http://www.w3.org/1999/xlink">
    <!-- Generator: Sketch 52.3 (67297) - http://www.bohemiancoding.com/sketch -->
    <title>social-twitter</title>
    <desc>Created with Sketch.</desc>
    <g id="Page-1" stroke="none" stroke-width="1" fill="none" fill-rule="evenodd">
        <g id="Dragons_Generic_WF_v4" transform="translate(-733.000000, -46.000000)" fill="#FBFBFB">
            <g id="Group-3" transform="translate(728.000000, 41.000000)">
                <path d="M14.3667665,7.960625 C14.3705389,8.04875 14.3730539,8.136875 14.3730539,8.22625 C14.3730539,10.936875 12.2969461,14.063125 8.5005988,14.063125 C7.33491018,14.063125 6.25032934,13.72375 5.33676647,13.141875 C5.49835329,13.160625 5.66245509,13.17 5.82907186,13.17 C6.79607784,13.17 7.6857485,12.8425 8.39245509,12.291875 C7.4889521,12.275625 6.72691617,11.6825 6.4641018,10.8675 C6.59047904,10.89125 6.71937126,10.90375 6.85266467,10.90375 C7.04065868,10.90375 7.22299401,10.87875 7.39652695,10.831875 C6.45215569,10.64375 5.7410479,9.814375 5.7410479,8.820625 L5.7410479,8.794375 C6.0189521,8.948125 6.33772455,9.040625 6.67598802,9.05125 C6.12206587,8.683125 5.75739521,8.055 5.75739521,7.34375 C5.75739521,6.9675 5.8592515,6.615 6.03718563,6.311875 C7.05511976,7.553125 8.5760479,8.37 10.2912575,8.455625 C10.2560479,8.305625 10.2378144,8.14875 10.2378144,7.988125 C10.2378144,6.855 11.1620659,5.93625 12.3013473,5.93625 C12.895509,5.93625 13.4318263,6.185625 13.8078144,6.584375 C14.2781138,6.4925 14.7201198,6.321875 15.1187425,6.086875 C14.9647006,6.565625 14.6371257,6.9675 14.2114671,7.221875 C14.6289521,7.171875 15.0263174,7.061875 15.3966467,6.89875 C15.12,7.31 14.7697904,7.67125 14.3667665,7.960625" id="social-twitter"></path>
            </g>
        </g>
    </g>
</svg>