<?xml version="1.0" encoding="UTF-8"?>
<svg width="26px" height="21px" viewBox="0 0 26 21" version="1.1" xmlns="http://www.w3.org/2000/svg" xmlns:xlink="http://www.w3.org/1999/xlink">
    <!-- Generator: Sketch 52.3 (67297) - http://www.bohemiancoding.com/sketch -->
    <title>ticket</title>
    <desc>Created with Sketch.</desc>
    <g id="Page-1" stroke="none" stroke-width="1" fill="none" fill-rule="evenodd">
        <g id="Dragons_Generic_WF_v4" transform="translate(-104.000000, -2817.000000)" fill="#FABE35">
            <g id="Group-11" transform="translate(0.000000, 2059.000000)">
                <g id="Group-21" transform="translate(102.000000, 754.000000)">
                    <g id="ic_confirmation_number_24px">
                        <g id="Clipped">
                            <path d="M27.4849315,12.4731183 L27.4849315,7.48387097 C27.4849315,6.09935484 26.3605479,4.98924731 24.9863014,4.98924731 L4.99726027,4.98924731 C3.6230137,4.98924731 2.51112329,6.09935484 2.51112329,7.48387097 L2.51112329,12.4731183 C3.88536986,12.4731183 4.99726027,13.5956989 4.99726027,14.9677419 C4.99726027,16.3397849 3.88536986,17.4623656 2.49863014,17.4623656 L2.49863014,22.4516129 C2.49863014,23.8236559 3.6230137,24.9462366 4.99726027,24.9462366 L24.9863014,24.9462366 C26.3605479,24.9462366 27.4849315,23.8236559 27.4849315,22.4516129 L27.4849315,17.4623656 C26.1106849,17.4623656 24.9863014,16.3397849 24.9863014,14.9677419 C24.9863014,13.5956989 26.1106849,12.4731183 27.4849315,12.4731183 L27.4849315,12.4731183 Z M16.2410959,21.827957 L13.7424658,21.827957 L13.7424658,19.3333333 L16.2410959,19.3333333 L16.2410959,21.827957 L16.2410959,21.827957 Z M16.2410959,16.2150538 L13.7424658,16.2150538 L13.7424658,13.7204301 L16.2410959,13.7204301 L16.2410959,16.2150538 L16.2410959,16.2150538 Z M16.2410959,10.6021505 L13.7424658,10.6021505 L13.7424658,8.10752688 L16.2410959,8.10752688 L16.2410959,10.6021505 L16.2410959,10.6021505 Z" id="ticket"></path>
                        </g>
                    </g>
                </g>
            </g>
        </g>
    </g>
</svg>